<?xml version="1.0" standalone="no"?>
<!DOCTYPE svg PUBLIC "-//W3C//DTD SVG 1.1//EN" "http://www.w3.org/Graphics/SVG/1.1/DTD/svg11.dtd" >
<svg>
<metadata>
Created by FontForge 20120731 at Sat Jun 29 17:02:24 2019
 By www
Copyright (c) 2014 by Mattox Shuler. All rights reserved.
</metadata>
<defs>
<font id="IndustryW00-Bold" horiz-adv-x="668" >
  <font-face 
    font-family="IndustryW00-Bold"
    font-weight="700"
    font-stretch="normal"
    units-per-em="1000"
    panose-1="1 0 0 0 0 0 0 0 0 0"
    ascent="800"
    descent="-200"
    x-height="540"
    cap-height="700"
    bbox="-150 -350 966 946"
    underline-thickness="50"
    underline-position="-125"
    unicode-range="U+0020-FB02"
  />
<missing-glyph horiz-adv-x="312" 
 />
    <glyph glyph-name=".notdef" horiz-adv-x="312" 
 />
    <glyph glyph-name=".null" horiz-adv-x="0" 
 />
    <glyph glyph-name="nonmarkingreturn" horiz-adv-x="333" 
 />
    <glyph glyph-name="space" unicode=" " horiz-adv-x="240" 
 />
    <glyph glyph-name="exclam" unicode="!" horiz-adv-x="276" 
d="M85 243l-31 457h168l-31 -457h-106zM58 0v156h160v-156h-160z" />
    <glyph glyph-name="quotedbl" unicode="&#x22;" horiz-adv-x="456" 
d="M169 444h-84l-36 256h156zM371 444h-84l-36 256h156z" />
    <glyph glyph-name="numbersign" unicode="#" horiz-adv-x="792" 
d="M590 301h100v-126h-142l-59 -175h-135l59 175h-154l-59 -175h-135l59 175h-91v126h133l37 113h-101v126h144l53 160h135l-53 -160h154l53 160h135l-53 -160h89v-126h-132zM339 414l-38 -113h154l38 113h-154z" />
    <glyph glyph-name="dollar" unicode="$" horiz-adv-x="626" 
d="M424 400q33 -7 59.5 -18.5t45.5 -34t29 -58.5t10 -91q0 -57 -8.5 -95.5t-26 -61t-43.5 -32t-62 -9.5h-60v-102h-115v102h-55q-36 0 -62 9.5t-43.5 32t-26 61t-8.5 95.5v30h140v-36q0 -21 1 -33.5t3.5 -19t6 -8t9.5 -1.5h49v164l-63 14q-33 7 -59.5 18.5t-45.5 33.5
t-29 57t-10 89q0 56 8.5 93t26 59.5t43.5 32t62 9.5h53v102h115v-102h46q36 0 62 -9.5t43.5 -32t26 -59.5t8.5 -93v-24h-140v30q0 20 -1 31.5t-3.5 17.5t-6 7.5t-9.5 1.5h-40v-155zM267 570h-43q-6 0 -9.5 -1.5t-6 -7.5t-3.5 -17.5t-1 -31.5q0 -23 1.5 -36t5.5 -20.5
t10.5 -10.5t16.5 -5l29 -6v136zM404 130q6 0 9.5 1.5t6 8t3.5 19t1 33.5q0 24 -1.5 38t-5.5 21.5t-10.5 11t-16.5 5.5l-36 8v-146h50z" />
    <glyph glyph-name="percent" unicode="%" horiz-adv-x="620" 
d="M196 700q38 0 54 -16t16 -54v-136q0 -38 -16 -54t-54 -16h-86q-37 0 -53.5 16.5t-16.5 53.5v136q0 38 16 54t54 16h86zM206 0h-116l324 700h116zM193 614q0 11 -3.5 14.5t-14.5 3.5h-44q-11 0 -14.5 -3.5t-3.5 -14.5v-104q0 -11 3.5 -14.5t14.5 -3.5h44q11 0 14.5 3.5
t3.5 14.5v104zM510 276q38 0 54 -16t16 -54v-136q0 -38 -16 -54t-54 -16h-86q-37 0 -53.5 16.5t-16.5 53.5v136q0 38 16 54t54 16h86zM507 190q0 11 -3.5 14.5t-14.5 3.5h-44q-11 0 -14.5 -3.5t-3.5 -14.5v-104q0 -11 3.5 -14.5t14.5 -3.5h44q11 0 14.5 3.5t3.5 14.5v104z
" />
    <glyph glyph-name="ampersand" unicode="&#x26;" horiz-adv-x="658" 
d="M566 140q0 -140 -140 -140h-226q-36 0 -62 9.5t-43.5 32t-26 60t-8.5 93.5q0 38 4 65.5t12.5 46t22 31t32.5 20.5q-17 9 -29 21.5t-19.5 30.5t-11 43t-3.5 60q0 53 8.5 89t26 57.5t43.5 31t62 9.5h184q140 0 140 -140v-68h-144v58q0 20 -20 20h-136q-6 0 -9.5 -2t-6 -9.5
t-3.5 -22t-1 -40.5t1 -40.5t3.5 -22t6 -9.5t9.5 -2h406v-128h-72v-154zM224 294q-6 0 -9.5 -2t-6 -10t-3.5 -24.5t-1 -45.5t1 -45.5t3.5 -24.5t6 -10t9.5 -2h178q20 0 20 20v144h-198z" />
    <glyph glyph-name="quotesingle" unicode="'" horiz-adv-x="254" 
d="M169 444h-84l-36 256h156z" />
    <glyph glyph-name="parenleft" unicode="(" horiz-adv-x="391" 
d="M247 632q-20 0 -20 -20v-566q0 -20 20 -20h91v-132h-115q-140 0 -140 140v590q0 140 140 140h115v-132h-91z" />
    <glyph glyph-name="parenright" unicode=")" horiz-adv-x="391" 
d="M168 764q140 0 140 -140v-590q0 -140 -140 -140h-115v132h91q20 0 20 20v566q0 20 -20 20h-91v132h115z" />
    <glyph glyph-name="asterisk" unicode="*" horiz-adv-x="420" 
d="M271 334l-62 137l-61 -136l-93 66l110 102l-148 16l34 109l132 -75l-30 147h114l-30 -147l130 74l36 -108l-150 -17l110 -101z" />
    <glyph glyph-name="plus" unicode="+" horiz-adv-x="508" 
d="M193 309h-137v122h137v127h122v-127h137v-122h-137v-127h-122v127z" />
    <glyph glyph-name="comma" unicode="," horiz-adv-x="250" 
d="M205 48q0 -29 -11 -51.5t-37 -52.5l-69 -78h-56l77 134h-64v156h160v-108z" />
    <glyph glyph-name="hyphen" unicode="-" horiz-adv-x="442" 
d="M391 265h-340v128h340v-128z" />
    <glyph glyph-name="period" unicode="." horiz-adv-x="250" 
d="M45 0v156h160v-156h-160z" />
    <glyph glyph-name="slash" unicode="/" horiz-adv-x="522" 
d="M154 -70h-140l354 840h140z" />
    <glyph glyph-name="zero" unicode="0" horiz-adv-x="643" 
d="M202 0q-140 0 -140 140v420q0 140 140 140h239q140 0 140 -140v-420q0 -140 -140 -140h-239zM206 152q0 -20 20 -20h191q20 0 20 20v396q0 20 -20 20h-191q-20 0 -20 -20v-396z" />
    <glyph glyph-name="one" unicode="1" horiz-adv-x="417" 
d="M181 550l-141 -46v120l171 76h114v-700h-144v550z" />
    <glyph glyph-name="two" unicode="2" horiz-adv-x="604" 
d="M206 482h-140v78q0 140 140 140h202q140 0 140 -140v-112q0 -30 -10.5 -52t-29.5 -38.5t-45.5 -29t-58.5 -24.5l-162 -60q-20 -8 -30 -14t-10 -26v-72h348v-132h-492v236q0 30 10.5 52t29.5 38.5t45.5 29t58.5 24.5l162 60q20 8 30 14t10 26v68q0 20 -20 20h-158
q-20 0 -20 -20v-66z" />
    <glyph glyph-name="three" unicode="3" horiz-adv-x="600" 
d="M190 212q0 -29 1 -45.5t3.5 -24.5t6 -10t9.5 -2h176q6 0 9.5 2t6 10t3.5 24.5t1 45.5t-1 45.5t-3.5 24.5t-6 10t-9.5 2h-167v128h159q6 0 9.5 2t6 9.5t3.5 22t1 40.5t-1 40.5t-3.5 22t-6 9.5t-9.5 2h-160q-6 0 -9.5 -2t-6 -9.5t-3.5 -22t-1 -40.5v-12h-144v23
q0 55 8.5 92.5t26 59.5t43.5 31.5t62 9.5h208q36 0 62 -9.5t43.5 -31t26 -57.5t8.5 -89q0 -36 -3.5 -61t-11 -43t-19.5 -30t-29 -21q19 -8 32.5 -20t22 -31t12.5 -46t4 -66q0 -56 -8.5 -93.5t-26 -60t-43.5 -32t-62 -9.5h-224q-36 0 -62 9.5t-43.5 32t-26 60t-8.5 93.5v21
h144v-4z" />
    <glyph glyph-name="four" unicode="4" horiz-adv-x="635" 
d="M512 144v-144h-140v144h-320l-30 118l358 438h132v-428h101v-128h-101zM372 272v219l-174 -219h174z" />
    <glyph glyph-name="five" unicode="5" horiz-adv-x="609" 
d="M216 377q13 19 27.5 34.5t34 26.5t46.5 17t66 6q87 0 124 -34.5t37 -105.5v-177q0 -144 -144 -144h-205q-140 0 -140 140v77h144v-65q0 -20 20 -20h161q20 0 20 20v161q0 11 -7 15.5t-34 4.5q-28 0 -49 -2t-38 -6t-32 -10.5t-31 -14.5l-144 36v364h459v-132h-315v-191z
" />
    <glyph glyph-name="six" unicode="6" horiz-adv-x="619" 
d="M407 548q0 20 -20 20h-161q-20 0 -20 -20v-190q13 19 28.5 34.5t37 26.5t51 17t70.5 6q91 0 128.5 -34t37.5 -106v-162q0 -140 -140 -140h-217q-140 0 -140 140v420q0 140 140 140h209q140 0 140 -140v-66h-144v54zM206 152q0 -20 20 -20h169q20 0 20 20v142
q0 11 -7.5 15.5t-39.5 4.5q-30 0 -53 -2t-42 -6t-35 -10.5t-32 -14.5v-129z" />
    <glyph glyph-name="seven" unicode="7" horiz-adv-x="576" 
d="M242 0h-158l292 570h-346v130h514v-103z" />
    <glyph glyph-name="eight" unicode="8" horiz-adv-x="620" 
d="M499 358q19 -8 32.5 -20t22 -31t12.5 -46t4 -66q0 -56 -8.5 -93.5t-26 -60t-43.5 -32t-62 -9.5h-240q-36 0 -62 9.5t-43.5 32t-26 60t-8.5 93.5q0 39 4 66t12.5 46t22 31t32.5 20q-17 9 -29 21t-19.5 30t-11 43t-3.5 61q0 53 8.5 89t26 57.5t43.5 31t62 9.5h224
q36 0 62 -9.5t43.5 -31t26 -57.5t8.5 -89q0 -36 -3.5 -61t-11 -43t-19.5 -30t-29 -21zM222 570q-6 0 -9.5 -2t-6 -9.5t-3.5 -22t-1 -40.5t1 -40.5t3.5 -22t6 -9.5t9.5 -2h176q6 0 9.5 2t6 9.5t3.5 22t1 40.5t-1 40.5t-3.5 22t-6 9.5t-9.5 2h-176zM406 130q6 0 9.5 2t6 10
t3.5 24.5t1 45.5t-1 45.5t-3.5 24.5t-6 10t-9.5 2h-192q-6 0 -9.5 -2t-6 -10t-3.5 -24.5t-1 -45.5t1 -45.5t3.5 -24.5t6 -10t9.5 -2h192z" />
    <glyph glyph-name="nine" unicode="9" horiz-adv-x="619" 
d="M212 152q0 -20 20 -20h161q20 0 20 20v193q-14 -19 -29 -34.5t-36.5 -26.5t-50.5 -17t-70 -6q-92 0 -129.5 34t-37.5 106v159q0 140 140 140h217q140 0 140 -140v-420q0 -140 -140 -140h-209q-140 0 -140 140v66h144v-54zM413 548q0 20 -20 20h-169q-20 0 -20 -20v-139
q0 -11 7.5 -15.5t39.5 -4.5q30 0 53 2t42 6t35 10.5t32 14.5v126z" />
    <glyph glyph-name="colon" unicode=":" horiz-adv-x="250" 
d="M45 384v156h160v-156h-160zM45 0v156h160v-156h-160z" />
    <glyph glyph-name="semicolon" unicode=";" horiz-adv-x="250" 
d="M45 384v156h160v-156h-160zM205 48q0 -29 -11 -51.5t-37 -52.5l-69 -78h-56l77 134h-64v156h160v-108z" />
    <glyph glyph-name="less" unicode="&#x3c;" horiz-adv-x="508" 
d="M52 418l392 216v-124l-262 -147l262 -146v-124l-392 215v110z" />
    <glyph glyph-name="equal" unicode="=" horiz-adv-x="508" 
d="M452 414h-396v128h396v-128zM452 206h-396v128h396v-128z" />
    <glyph glyph-name="greater" unicode="&#x3e;" horiz-adv-x="508" 
d="M64 510v124l392 -216v-110l-392 -215v124l262 146z" />
    <glyph glyph-name="question" unicode="?" horiz-adv-x="564" 
d="M389 700q140 0 140 -140v-101q0 -24 -12 -43t-31.5 -35.5t-45.5 -32t-53 -31.5l-40 -24q-17 -10 -25.5 -17t-8.5 -17v-45h-144v75q0 22 13 41.5t33.5 37t46 33.5t51.5 32l38 24q17 11 25.5 18t8.5 16v57q0 20 -20 20h-184q-20 0 -20 -20v-68h-144v80q0 140 140 140h232z
M313 0h-144v144h144v-144z" />
    <glyph glyph-name="at" unicode="@" horiz-adv-x="979" 
d="M758 700q140 0 140 -140v-373q0 -140 -140 -140h-180l-20 72q-9 -13 -21 -26.5t-29 -24.5t-41 -18t-57 -7q-76 0 -111 34t-35 106v174q0 72 35 106t111 34q33 0 57 -7t41 -18t29 -24.5t21 -26.5l20 72h120v-370h58q12 0 20 2.5t12.5 10t6 20.5t1.5 33v377q0 38 -38 38
h-537q-38 0 -38 -38v-592q0 -38 38 -38h511v-96h-511q-140 0 -140 140v580q0 140 140 140h537zM558 342q-23 16 -50.5 27.5t-69.5 11.5q-21 0 -27.5 -5t-6.5 -19v-174q0 -14 6.5 -19t27.5 -5q42 0 69.5 11.5t50.5 27.5v144z" />
    <glyph glyph-name="A" unicode="A" 
d="M211 152l-43 -152h-152l213 700h210l213 -700h-158l-43 152h-240zM331 578l-83 -294h166z" />
    <glyph glyph-name="B" unicode="B" horiz-adv-x="643" 
d="M445 700q36 0 62 -9.5t43.5 -31t26 -57.5t8.5 -89q0 -35 -3.5 -60t-11 -43t-19.5 -30.5t-29 -21.5q19 -8 32.5 -20.5t22 -31t12.5 -46t4 -65.5q0 -56 -8.5 -93.5t-26 -60t-43.5 -32t-62 -9.5h-374v700h366zM421 420q6 0 9.5 2t6 9.5t3.5 22.5t1 41t-1 41t-3.5 22.5
t-6 9.5t-9.5 2h-198v-150h198zM429 130q6 0 9.5 2t6 10t3.5 25t1 46t-1 45.5t-3.5 25t-6 10.5t-9.5 2h-206v-166h206z" />
    <glyph glyph-name="C" unicode="C" horiz-adv-x="623" 
d="M202 0q-140 0 -140 140v420q0 140 140 140h232q140 0 140 -140v-114h-144v102q0 20 -20 20h-184q-20 0 -20 -20v-396q0 -20 20 -20h184q20 0 20 20v102h144v-114q0 -140 -140 -140h-232z" />
    <glyph glyph-name="D" unicode="D" horiz-adv-x="664" 
d="M462 700q140 0 140 -140v-420q0 -140 -140 -140h-383v700h383zM438 132q20 0 20 20v396q0 20 -20 20h-215v-436h215z" />
    <glyph glyph-name="E" unicode="E" horiz-adv-x="598" 
d="M550 700v-132h-327v-145h265v-130h-265v-161h327v-132h-471v700h471z" />
    <glyph glyph-name="F" unicode="F" horiz-adv-x="580" 
d="M79 700h471v-132h-327v-151h265v-130h-265v-287h-144v700z" />
    <glyph glyph-name="G" unicode="G" horiz-adv-x="642" 
d="M439 548q0 20 -20 20h-193q-20 0 -20 -20v-396q0 -20 20 -20h193q20 0 20 20v108h-132v126h276v-246q0 -140 -140 -140h-241q-140 0 -140 140v420q0 140 140 140h241q140 0 140 -140v-92h-144v80z" />
    <glyph glyph-name="H" unicode="H" horiz-adv-x="694" 
d="M79 700h144v-276h248v276h144v-700h-144v292h-248v-292h-144v700z" />
    <glyph glyph-name="I" unicode="I" horiz-adv-x="302" 
d="M79 700h144v-700h-144v700z" />
    <glyph glyph-name="J" unicode="J" horiz-adv-x="572" 
d="M500 140q0 -140 -140 -140h-193q-140 0 -140 140v156h144v-144q0 -20 20 -20h145q20 0 20 20v548h144v-560z" />
    <glyph glyph-name="K" unicode="K" horiz-adv-x="659" 
d="M323 303l-102 -129v-174h-142v700h142v-328l249 328h169l-219 -276l230 -424h-162z" />
    <glyph glyph-name="L" unicode="L" horiz-adv-x="555" 
d="M223 700v-568h302v-132h-446v700h144z" />
    <glyph glyph-name="M" unicode="M" horiz-adv-x="846" 
d="M767 0h-142v446l-151 -353h-106l-151 353v-446h-138v700h158l186 -412l186 412h158v-700z" />
    <glyph glyph-name="N" unicode="N" horiz-adv-x="713" 
d="M634 700v-700h-140l-275 467v-467h-140v700h150l265 -451v451h140z" />
    <glyph glyph-name="O" unicode="O" horiz-adv-x="661" 
d="M202 0q-140 0 -140 140v420q0 140 140 140h257q140 0 140 -140v-420q0 -140 -140 -140h-257zM206 152q0 -20 20 -20h209q20 0 20 20v396q0 20 -20 20h-209q-20 0 -20 -20v-396z" />
    <glyph glyph-name="P" unicode="P" horiz-adv-x="626" 
d="M449 700q140 0 140 -140v-186q0 -140 -140 -140h-226v-234h-144v700h370zM425 366q20 0 20 20v162q0 20 -20 20h-202v-202h202z" />
    <glyph glyph-name="Q" unicode="Q" horiz-adv-x="649" 
d="M447 700q140 0 140 -140v-420q0 -140 -140 -140h-50v-128h-144v128h-51q-140 0 -140 140v420q0 140 140 140h245zM443 548q0 20 -20 20h-197q-20 0 -20 -20v-396q0 -20 20 -20h197q20 0 20 20v396z" />
    <glyph glyph-name="R" unicode="R" horiz-adv-x="650" 
d="M455 0l-116 247h-116v-247h-144v700h369q140 0 140 -140v-169q0 -118 -97 -136l119 -255h-155zM424 375q20 0 20 20v155q0 20 -20 20h-201v-195h201z" />
    <glyph glyph-name="S" unicode="S" horiz-adv-x="626" 
d="M416 550q0 20 -20 20h-172q-20 0 -20 -20v-76q0 -17 7 -23t27 -11l186 -40q66 -14 105 -45.5t39 -98.5v-116q0 -140 -140 -140h-230q-140 0 -140 140v88h140v-78q0 -20 20 -20h186q20 0 20 20v84q0 17 -7 23t-27 11l-186 40q-33 7 -59.5 18t-45.5 27.5t-29 40.5t-10 58
v108q0 140 140 140h216q140 0 140 -140v-80h-140v70z" />
    <glyph glyph-name="T" unicode="T" horiz-adv-x="574" 
d="M359 570v-570h-144v570h-190v130h524v-130h-190z" />
    <glyph glyph-name="U" unicode="U" 
d="M596 140q0 -140 -140 -140h-244q-140 0 -140 140v560h144v-548q0 -20 20 -20h196q20 0 20 20v548h144v-560z" />
    <glyph glyph-name="V" unicode="V" horiz-adv-x="638" 
d="M403 0h-168l-217 700h158l145 -541l145 541h154z" />
    <glyph glyph-name="W" unicode="W" horiz-adv-x="928" 
d="M582 0l-115 456l-115 -456h-159l-175 700h150l109 -514l129 514h122l129 -514l109 514h144l-176 -700h-152z" />
    <glyph glyph-name="X" unicode="X" horiz-adv-x="632" 
d="M169 0h-155l218 356l-212 344h162l137 -226l138 226h155l-218 -344l224 -356h-162l-144 236z" />
    <glyph glyph-name="Y" unicode="Y" horiz-adv-x="612" 
d="M234 0v239l-228 461h156l145 -312l145 312h154l-228 -461v-239h-144z" />
    <glyph glyph-name="Z" unicode="Z" horiz-adv-x="598" 
d="M374 572h-310v128h488v-108l-328 -464h326v-128h-504v108z" />
    <glyph glyph-name="bracketleft" unicode="[" horiz-adv-x="381" 
d="M227 26h101v-132h-245v870h245v-132h-101v-606z" />
    <glyph glyph-name="backslash" unicode="\" horiz-adv-x="522" 
d="M368 -70l-354 840h140l354 -840h-140z" />
    <glyph glyph-name="bracketright" unicode="]" horiz-adv-x="381" 
d="M298 764v-870h-245v132h101v606h-101v132h245z" />
    <glyph glyph-name="asciicircum" unicode="^" horiz-adv-x="712" 
d="M430 720l216 -432h-146l-144 288l-144 -288h-146l216 432h148z" />
    <glyph glyph-name="underscore" unicode="_" horiz-adv-x="576" 
d="M570 -170h-564v124h564v-124z" />
    <glyph glyph-name="grave" unicode="`" horiz-adv-x="415" 
d="M219 766l-149 144h175l90 -144h-116z" />
    <glyph glyph-name="a" unicode="a" horiz-adv-x="554" 
d="M364 540q67 0 98.5 -31.5t31.5 -98.5v-410h-138v84q-14 -19 -28 -35t-33 -28t-45 -18.5t-63 -6.5q-78 0 -111.5 35.5t-33.5 119.5q0 42 9.5 71.5t27.5 49t44 30t59 15.5t78 9.5t96 6.5v72q0 22 -22 22h-116q-22 0 -22 -22v-32h-136v37q0 67 31.5 98.5t98.5 31.5h174z
M213 218q-20 -4 -27.5 -13t-7.5 -40q0 -32 6.5 -41.5t29.5 -9.5q25 0 44.5 3.5t36 9.5t31.5 13.5t30 15.5v89z" />
    <glyph glyph-name="b" unicode="b" horiz-adv-x="581" 
d="M377 544q82 0 116 -32.5t34 -107.5v-268q0 -75 -34 -107.5t-116 -32.5q-39 0 -66 6t-46.5 17t-34 26.5t-27.5 34.5v-80h-138v730h138v-270q13 19 27.5 34.5t34 26.5t46.5 17t66 6zM389 388q0 20 -7 26t-33 6t-46.5 -2t-37.5 -6t-32 -10t-30 -14v-236q15 -8 30 -14t32 -10
t37.5 -6t46.5 -2t33 6t7 26v236z" />
    <glyph glyph-name="c" unicode="c" horiz-adv-x="531" 
d="M357 540q67 0 98.5 -31.5t31.5 -98.5v-68h-138v56q0 22 -22 22h-113q-22 0 -22 -22v-256q0 -22 22 -22h113q22 0 22 22v56h138v-68q0 -67 -31.5 -98.5t-98.5 -31.5h-173q-67 0 -98.5 31.5t-31.5 98.5v280q0 67 31.5 98.5t98.5 31.5h173z" />
    <glyph glyph-name="d" unicode="d" horiz-adv-x="581" 
d="M204 544q39 0 66 -6t46.5 -17t33.5 -26.5t28 -34.5v270h138v-730h-138v80q-14 -19 -28 -34.5t-33.5 -26.5t-46.5 -17t-66 -6q-82 0 -116 32.5t-34 107.5v268q0 75 34 107.5t116 32.5zM192 152q0 -20 7 -26t33 -6t46.5 2t37.5 6t32 10t30 14v236q-15 8 -30 14t-32 10
t-37.5 6t-46.5 2t-33 -6t-7 -26v-236z" />
    <glyph glyph-name="e" unicode="e" horiz-adv-x="551" 
d="M192 134q0 -22 22 -22h127q22 0 22 22v42h138v-46q0 -67 -31.5 -98.5t-98.5 -31.5h-187q-67 0 -98.5 31.5t-31.5 98.5v280q0 67 31.5 98.5t98.5 31.5h187q67 0 98.5 -31.5t31.5 -98.5v-179h-309v-97zM214 428q-22 0 -22 -22v-82h171v82q0 22 -22 22h-127z" />
    <glyph glyph-name="f" unicode="f" horiz-adv-x="381" 
d="M263 626q-22 0 -22 -22v-64h120v-116h-120v-424h-138v424h-77v116h77v60q0 67 31 98.5t99 31.5h118v-104h-88z" />
    <glyph glyph-name="g" unicode="g" horiz-adv-x="581" 
d="M516 -30q0 -67 -31.5 -98.5t-98.5 -31.5h-262v110h232q22 0 22 22v132q-14 -19 -28 -34.5t-33.5 -26.5t-46.5 -17t-66 -6q-82 0 -116 32.5t-34 107.5v244q0 75 34 107.5t116 32.5q39 0 66 -6t46.5 -17t33.5 -26.5t28 -34.5v80h138v-570zM192 166q0 -12 7 -17t33 -5
t46.5 2t37.5 6t32 10t30 14v212q-15 8 -30 14t-32 10t-37.5 6t-46.5 2t-33 -5t-7 -17v-232z" />
    <glyph glyph-name="h" unicode="h" horiz-adv-x="579" 
d="M203 461q13 19 27.5 34.5t34 26.5t45.5 17t63 6q79 0 112.5 -32t33.5 -102v-411h-138v395q0 15 -6.5 20.5t-28.5 5.5q-25 0 -45 -2t-36.5 -6t-31.5 -10t-30 -14v-389h-138v730h138v-269z" />
    <glyph glyph-name="i" unicode="i" horiz-adv-x="268" 
d="M61 600v130h146v-130h-146zM203 0h-138v540h138v-540z" />
    <glyph glyph-name="j" unicode="j" horiz-adv-x="268" 
d="M61 600v130h146v-130h-146zM203 -29q0 -32 -9 -53.5t-25.5 -36.5t-40.5 -24t-55 -15l-105 -22v92l79 42q8 4 13 9.5t5 14.5v562h138v-569z" />
    <glyph glyph-name="k" unicode="k" horiz-adv-x="552" 
d="M277 223l-76 -95v-128h-136v730h136v-424l168 234h163l-168 -209l178 -331l-148 -1z" />
    <glyph glyph-name="l" unicode="l" horiz-adv-x="264" 
d="M201 730v-730h-138v730h138z" />
    <glyph glyph-name="m" unicode="m" horiz-adv-x="867" 
d="M665 546q76 0 109 -32t33 -102v-412h-138v396q0 15 -6 20.5t-25 5.5q-43 0 -72.5 -7.5t-60.5 -24.5v-390h-138v396q0 15 -6 20.5t-25 5.5q-43 0 -72.5 -7.5t-60.5 -24.5v-390h-138v540h138v-78q13 19 27.5 34.5t32.5 26.5t42.5 17t57.5 6q63 0 96 -21.5t42 -67.5
q13 19 28 35.5t34.5 28.5t44 18.5t57.5 6.5z" />
    <glyph glyph-name="n" unicode="n" horiz-adv-x="579" 
d="M203 461q13 19 27.5 34.5t34 26.5t45.5 17t63 6q79 0 112.5 -32t33.5 -102v-411h-138v395q0 15 -6.5 20.5t-28.5 5.5q-25 0 -45 -2t-36.5 -6t-31.5 -10t-30 -14v-389h-138v540h138v-79z" />
    <glyph glyph-name="o" unicode="o" horiz-adv-x="561" 
d="M377 540q67 0 98.5 -31.5t31.5 -98.5v-280q0 -67 -31.5 -98.5t-98.5 -31.5h-193q-67 0 -98.5 31.5t-31.5 98.5v280q0 67 31.5 98.5t98.5 31.5h193zM369 398q0 22 -22 22h-133q-22 0 -22 -22v-256q0 -22 22 -22h133q22 0 22 22v256z" />
    <glyph glyph-name="p" unicode="p" horiz-adv-x="581" 
d="M377 544q82 0 116 -32.5t34 -107.5v-268q0 -75 -34 -107.5t-116 -32.5q-39 0 -66 6t-46.5 17t-34 26.5t-27.5 34.5v-240h-138v700h138v-80q13 19 27.5 34.5t34 26.5t46.5 17t66 6zM389 388q0 20 -7 26t-33 6t-46.5 -2t-37.5 -6t-32 -10t-30 -14v-236q15 -8 30 -14t32 -10
t37.5 -6t46.5 -2t33 6t7 26v236z" />
    <glyph glyph-name="q" unicode="q" horiz-adv-x="581" 
d="M204 544q39 0 66 -6t46.5 -17t33.5 -26.5t28 -34.5v80h138v-700h-138v240q-14 -19 -28 -34.5t-33.5 -26.5t-46.5 -17t-66 -6q-82 0 -116 32.5t-34 107.5v268q0 75 34 107.5t116 32.5zM192 152q0 -20 7 -26t33 -6t46.5 2t37.5 6t32 10t30 14v236q-15 8 -30 14t-32 10
t-37.5 6t-46.5 2t-33 -6t-7 -26v-236z" />
    <glyph glyph-name="r" unicode="r" horiz-adv-x="422" 
d="M332 410q-40 0 -69 -7.5t-60 -24.5v-378h-138v540h138v-84q13 19 27.5 34.5t32 26.5t40.5 17t54 6h43v-130h-68z" />
    <glyph glyph-name="s" unicode="s" horiz-adv-x="526" 
d="M335 410q0 22 -22 22h-105q-12 0 -17 -7.5t-5 -33.5q0 -30 5 -38.5t25 -11.5l149 -24q32 -5 54.5 -14t36.5 -25.5t20.5 -43.5t6.5 -69q0 -93 -31.5 -129t-98.5 -36h-180q-67 0 -98.5 31.5t-31.5 98.5v49h136v-49q0 -22 22 -22h124q12 0 17 8t5 38q0 17 -1 27t-4 16t-9 8
t-16 4l-149 24q-32 5 -54.5 14t-36.5 25t-20.5 42t-6.5 66q0 89 31.5 124.5t98.5 35.5h161q67 0 98.5 -31.5t31.5 -98.5v-40h-136v40z" />
    <glyph glyph-name="t" unicode="t" horiz-adv-x="386" 
d="M238 136q0 -22 22 -22h94v-114h-124q-67 0 -98.5 31.5t-31.5 98.5v298h-80v112h82v130h134v-130h118v-112h-116v-292z" />
    <glyph glyph-name="u" unicode="u" horiz-adv-x="579" 
d="M376 79q-14 -19 -28 -34.5t-33.5 -26.5t-45.5 -17t-63 -6q-79 0 -112.5 32t-33.5 102v411h138v-395q0 -15 6.5 -20.5t28.5 -5.5q25 0 45 2t36.5 6t31.5 10t30 14v389h138v-540h-138v79z" />
    <glyph glyph-name="v" unicode="v" horiz-adv-x="536" 
d="M344 0h-152l-177 540h148l108 -417l108 417h142z" />
    <glyph glyph-name="w" unicode="w" horiz-adv-x="786" 
d="M486 0l-88 381l-88 -381h-144l-151 540h148l74 -391l94 391h134l94 -391l74 391h138l-141 -540h-144z" />
    <glyph glyph-name="x" unicode="x" horiz-adv-x="528" 
d="M154 0h-140l175 274l-173 266h150l101 -163l101 163h140l-172 -267l178 -273h-150l-105 167z" />
    <glyph glyph-name="y" unicode="y" horiz-adv-x="544" 
d="M286 -160h-133l52 160l-190 540h148l112 -395l112 395h142z" />
    <glyph glyph-name="z" unicode="z" horiz-adv-x="481" 
d="M276 424h-236v116h402v-96l-244 -328h251v-116h-417v98z" />
    <glyph glyph-name="braceleft" unicode="{" horiz-adv-x="452" 
d="M288 424q0 -36 -17 -57.5t-37 -34.5q20 -13 37 -34.5t17 -57.5v-194q0 -20 20 -20h91v-132h-115q-140 0 -140 140v216q0 20 -20 20h-81v124h81q20 0 20 20v210q0 140 140 140h115v-132h-91q-20 0 -20 -20v-188z" />
    <glyph glyph-name="bar" unicode="|" horiz-adv-x="352" 
d="M242 767v-983h-132v983h132z" />
    <glyph glyph-name="braceright" unicode="}" horiz-adv-x="452" 
d="M164 612q0 20 -20 20h-91v132h115q140 0 140 -140v-210q0 -20 20 -20h81v-124h-81q-20 0 -20 -20v-216q0 -140 -140 -140h-115v132h91q20 0 20 20v194q0 36 17 57.5t37 34.5q-20 13 -37 34.5t-17 57.5v188z" />
    <glyph glyph-name="asciitilde" unicode="~" horiz-adv-x="508" 
d="M146 264h-80v25q0 29 7.5 50t20 35t29 20.5t33.5 6.5q22 0 47.5 -7t50.5 -16t47 -16t38 -7q21 0 21 21v19h82v-25q0 -58 -24.5 -85t-59.5 -27q-21 0 -47 7t-52.5 16t-50 16t-39.5 7q-11 0 -17 -4t-6 -17v-19z" />
    <glyph glyph-name="exclamdown" unicode="&#xa1;" horiz-adv-x="276" 
d="M218 540v-156h-160v156h160zM191 297l31 -457h-168l31 457h106z" />
    <glyph glyph-name="cent" unicode="&#xa2;" horiz-adv-x="584" 
d="M399 468q0 20 -20 20h-34v-270h34q20 0 20 20v54h130v-56q0 -140 -140 -140h-36v-96h-114v96h-42q-140 0 -140 140v234q0 140 140 140h42v90h114v-90h36q140 0 140 -140v-56h-130v54zM207 488q-20 0 -20 -20v-230q0 -20 20 -20h40v270h-40z" />
    <glyph glyph-name="sterling" unicode="&#xa3;" horiz-adv-x="627" 
d="M576 0h-551v132h62q20 0 20 20v131h-82v130h82v147q0 140 140 140h185q140 0 140 -140v-92h-144v80q0 20 -20 20h-137q-20 0 -20 -20v-135h144v-130h-144v-151h325v-132z" />
    <glyph glyph-name="currency" unicode="&#xa4;" horiz-adv-x="601" 
d="M507 278q0 -26 -5 -51l82 -82l-85 -86l-84 84q-23 -5 -48 -5h-133q-25 0 -48 5l-84 -84l-85 86l82 82q-5 25 -5 51v160q0 25 5 48l-82 82l85 86l81 -81q25 5 51 5h133q26 0 51 -5l81 81l85 -86l-82 -82q5 -23 5 -48v-160zM385 444q0 20 -20 20h-129q-20 0 -20 -20v-172
q0 -20 20 -20h129q20 0 20 20v172z" />
    <glyph glyph-name="yen" unicode="&#xa5;" horiz-adv-x="612" 
d="M531 338v-74h-141l-12 -25v-25h153v-74h-153v-140h-144v140h-153v74h153v25l-12 25h-141v74h104l-179 362h156l145 -312l145 312h154l-179 -362h104z" />
    <glyph glyph-name="brokenbar" unicode="&#xa6;" horiz-adv-x="352" 
d="M242 767v-396h-132v396h132zM110 -216v376h132v-376h-132z" />
    <glyph glyph-name="section" unicode="&#xa7;" horiz-adv-x="537" 
d="M341 534q0 34 -4.5 42t-15.5 8h-104q-11 0 -15.5 -7t-4.5 -33q0 -24 4.5 -31.5t13.5 -9.5l159 -26q26 -4 47.5 -12t36.5 -26t23.5 -47.5t8.5 -77.5q0 -35 -3.5 -58t-9.5 -38t-13.5 -24.5t-14.5 -16.5q7 -6 13 -12.5t10.5 -17t7.5 -27.5t3 -42q0 -95 -34.5 -133.5
t-105.5 -38.5h-156q-72 0 -106 38t-34 132v11h136v-9q0 -34 4.5 -42t15.5 -8h124q11 0 15.5 7.5t4.5 36.5q0 26 -4.5 34t-13.5 10l-159 26q-29 5 -50.5 14.5t-36 27.5t-22 46.5t-7.5 70.5q0 34 3.5 56.5t9.5 37.5t14.5 25t17.5 18q-8 6 -14.5 13t-12 17.5t-8.5 26.5t-3 40
q0 90 34.5 127.5t105.5 37.5h136q71 0 105.5 -37.5t34.5 -126.5v-4h-136v2zM333 232q5 -1 9 1t6.5 8.5t4 20t1.5 36.5q0 22 -1 35.5t-3.5 20.5t-6 9.5t-7.5 3.5l-124 20q-5 1 -9 -0.5t-7 -8.5t-4.5 -20t-1.5 -36t1 -36t3.5 -20.5t5.5 -10t8 -3.5z" />
    <glyph glyph-name="dieresis" unicode="&#xa8;" horiz-adv-x="640" 
d="M154 766v128h130v-128h-130zM356 766v128h130v-128h-130z" />
    <glyph glyph-name="copyright" unicode="&#xa9;" horiz-adv-x="847" 
d="M626 700q140 0 140 -140v-420q0 -140 -140 -140h-405q-140 0 -140 140v420q0 140 140 140h405zM674 562q0 52 -52 52h-397q-52 0 -52 -52v-424q0 -52 52 -52h397q52 0 52 52v424zM492 568q53 0 77.5 -24.5t24.5 -77.5v-68h-104v55q0 20 -20 20h-92q-20 0 -20 -20v-206
q0 -20 20 -20h92q20 0 20 20v55h104v-68q0 -53 -24.5 -77.5t-77.5 -24.5h-136q-53 0 -77.5 24.5t-24.5 77.5v232q0 53 24.5 77.5t77.5 24.5h136z" />
    <glyph glyph-name="ordfeminine" unicode="&#xaa;" horiz-adv-x="388" 
d="M251 700q46 0 68 -21.5t22 -68.5v-261h-89v49q-6 -10 -13.5 -19.5t-19 -16.5t-27.5 -11.5t-39 -4.5q-58 0 -82 24t-24 81q0 28 6 46.5t18 30t30 17.5t43 10q33 5 56.5 6.5t51.5 3.5v45q0 12 -12 12h-84q-12 0 -12 -12v-22h-86v22q0 47 21.5 68.5t68.5 21.5h103zM148 494
q-7 -2 -9.5 -6t-2.5 -27t4.5 -28t24.5 -5q35 0 54 6t34 16v64zM341 218h-286v77h286v-77z" />
    <glyph glyph-name="guillemotleft" unicode="&#xab;" horiz-adv-x="534" 
d="M140 351l147 -207h-144l-128 181v52l128 182h144zM364 351l147 -207h-144l-128 181v52l128 182h144z" />
    <glyph glyph-name="registered" unicode="&#xae;" horiz-adv-x="428" 
d="M314 700q64 0 64 -64v-242q0 -64 -64 -64h-200q-64 0 -64 64v242q0 64 64 64h200zM341 639q0 26 -26 26h-202q-26 0 -26 -26v-248q0 -26 26 -26h202q26 0 26 26v248zM291 534q0 -39 -33 -42l36 -86h-41l-36 86h-40v-86h-38v218h109q43 0 43 -43v-47zM243 527q10 0 10 10
v42q0 10 -10 10h-65v-62h65z" />
    <glyph glyph-name="macron" unicode="&#xaf;" horiz-adv-x="612" 
d="M436 776h-276v112h276v-112z" />
    <glyph glyph-name="degree" unicode="&#xb0;" horiz-adv-x="322" 
d="M117 488q-60 0 -60 60v92q0 60 60 60h88q60 0 60 -60v-92q0 -60 -60 -60h-88zM137 646q-16 0 -16 -16v-72q0 -16 16 -16h48q16 0 16 16v72q0 16 -16 16h-48z" />
    <glyph glyph-name="plusminus" unicode="&#xb1;" horiz-adv-x="508" 
d="M193 382h-137v122h137v127h122v-127h137v-122h-137v-127h-122v127zM452 200v-120h-396v120h396z" />
    <glyph glyph-name="uni00B2" unicode="&#xb2;" horiz-adv-x="361" 
d="M130 686h-91v34q0 48 21.5 69t68.5 21h111q48 0 69 -21t21 -69v-61q0 -20 -8.5 -33.5t-21.5 -22.5t-28 -14t-28 -9l-95 -28q-9 -2 -14.5 -5.5t-5.5 -11.5v-31h202v-90h-297v146q0 19 7 32t19 22t27.5 14.5t32.5 10.5l95 28q12 4 16 6.5t4 10.5v24q0 8 -2 10t-10 2h-81
q-8 0 -10 -2t-2 -10v-22z" />
    <glyph glyph-name="uni00B3" unicode="&#xb3;" horiz-adv-x="361" 
d="M120 537q0 -26 2 -31t10 -5h91q8 0 10 5t2 31t-2 31.5t-10 5.5h-91v83h86q8 0 10 5t2 28t-2 28t-10 5h-82q-8 0 -10 -5t-2 -28v-5h-94v11q0 65 21.5 89.5t68.5 24.5h114q46 0 68 -24.5t22 -89.5q0 -19 -1.5 -31.5t-6 -21.5t-11.5 -15t-18 -12q23 -11 32.5 -28t9.5 -58
q0 -66 -21 -91t-69 -25h-124q-48 0 -69 24.5t-21 91.5v9h95v-2z" />
    <glyph glyph-name="acute" unicode="&#xb4;" horiz-adv-x="415" 
d="M80 766l90 144h175l-149 -144h-116z" />
    <glyph glyph-name="paragraph" unicode="&#xb6;" horiz-adv-x="835" 
d="M612 0v564h-88v-564h-144v236h-190q-140 0 -140 140v184q0 140 140 140h566v-700h-144z" />
    <glyph glyph-name="periodcentered" unicode="&#xb7;" horiz-adv-x="250" 
d="M45 245v156h160v-156h-160z" />
    <glyph glyph-name="cedilla" unicode="&#xb8;" horiz-adv-x="565" 
d="M336 -66q0 -28 -6 -46t-18 -28.5t-29.5 -15t-40.5 -4.5h-83l-50 78h103q20 0 20 20v62h104v-66z" />
    <glyph glyph-name="uni00B9" unicode="&#xb9;" horiz-adv-x="251" 
d="M106 714l-86 -24v77l106 45h74v-396h-94v298z" />
    <glyph glyph-name="ordmasculine" unicode="&#xba;" horiz-adv-x="388" 
d="M251 700q46 0 68 -21.5t22 -68.5v-171q0 -46 -21.5 -68t-68.5 -22h-114q-90 0 -90 90v171q0 46 21.5 68t68.5 22h114zM252 607q0 12 -12 12h-92q-12 0 -12 -12v-165q0 -12 12 -12h92q12 0 12 12v165zM333 218h-278v77h278v-77z" />
    <glyph glyph-name="guillemotright" unicode="&#xbb;" horiz-adv-x="534" 
d="M295 325l-128 -181h-144l147 207l-147 208h144l128 -182v-52zM519 325l-128 -181h-144l147 207l-147 208h144l128 -182v-52z" />
    <glyph glyph-name="onequarter" unicode="&#xbc;" horiz-adv-x="811" 
d="M201 0h-100l412 720h100zM106 604l-86 -24v77l106 45h74v-396h-94v298zM729 72v-72h-92v72h-194l-21 70l229 254h78v-241h60v-83h-60zM637 155v100l-99 -100h99z" />
    <glyph glyph-name="onehalf" unicode="&#xbd;" horiz-adv-x="824" 
d="M201 0h-100l412 720h100zM106 604l-86 -24v77l106 45h74v-396h-94v298zM593 272h-91v34q0 48 21.5 69t68.5 21h111q48 0 69 -21t21 -69v-61q0 -20 -8.5 -33.5t-21.5 -22.5t-28 -14t-28 -9l-95 -28q-9 -2 -14.5 -5.5t-5.5 -11.5v-31h202v-90h-297v146q0 19 7 32t19 22
t27.5 14.5t32.5 10.5l95 28q12 4 16 6.5t4 10.5v24q0 8 -2 10t-10 2h-81q-8 0 -10 -2t-2 -10v-22z" />
    <glyph glyph-name="threequarters" unicode="&#xbe;" horiz-adv-x="921" 
d="M311 0h-100l412 720h100zM120 427q0 -26 2 -31t10 -5h91q8 0 10 5t2 31t-2 31.5t-10 5.5h-91v83h86q8 0 10 5t2 28t-2 28t-10 5h-82q-8 0 -10 -5t-2 -28v-5h-94v11q0 65 21.5 89.5t68.5 24.5h114q46 0 68 -24.5t22 -89.5q0 -19 -1.5 -31.5t-6 -21.5t-11.5 -15t-18 -12
q23 -11 32.5 -28t9.5 -58q0 -66 -21 -91t-69 -25h-124q-48 0 -69 24.5t-21 91.5v9h95v-2zM839 72v-72h-92v72h-194l-21 70l229 254h78v-241h60v-83h-60zM747 155v100l-99 -100h99z" />
    <glyph glyph-name="questiondown" unicode="&#xbf;" horiz-adv-x="564" 
d="M251 540h144v-144h-144v144zM175 -160q-140 0 -140 140v101q0 24 12 43t31.5 35.5t45.5 31.5t53 32l40 24q17 10 25.5 17t8.5 17v45h144v-75q0 -23 -13 -42t-33.5 -36.5t-46.5 -33.5t-51 -32l-38 -24q-17 -11 -25.5 -18t-8.5 -16v-57q0 -20 20 -20h184q20 0 20 20v68h144
v-80q0 -140 -140 -140h-232z" />
    <glyph glyph-name="Agrave" unicode="&#xc0;" 
d="M144 910h175l90 -144h-116zM211 152l-43 -152h-152l213 700h210l213 -700h-158l-43 152h-240zM331 578l-83 -294h166z" />
    <glyph glyph-name="Aacute" unicode="&#xc1;" 
d="M259 766l90 144h175l-149 -144h-116zM211 152l-43 -152h-152l213 700h210l213 -700h-158l-43 152h-240zM331 578l-83 -294h166z" />
    <glyph glyph-name="Acircumflex" unicode="&#xc2;" 
d="M144 766l130 130h120l130 -130h-129l-61 63l-61 -63h-129zM211 152l-43 -152h-152l213 700h210l213 -700h-158l-43 152h-240zM331 578l-83 -294h166z" />
    <glyph glyph-name="Atilde" unicode="&#xc3;" 
d="M173 764v25q0 58 24.5 85t59.5 27q22 0 41.5 -7t36.5 -16t33 -16t32 -7q21 0 21 21v19h76v-25q0 -58 -21.5 -85t-56.5 -27q-21 0 -41 7t-38.5 16t-36 16t-33.5 7q-11 0 -17 -4t-6 -17v-19h-74zM211 152l-43 -152h-152l213 700h210l213 -700h-158l-43 152h-240zM331 578
l-83 -294h166z" />
    <glyph glyph-name="Adieresis" unicode="&#xc4;" 
d="M168 766v128h130v-128h-130zM370 766v128h130v-128h-130zM211 152l-43 -152h-152l213 700h210l213 -700h-158l-43 152h-240zM331 578l-83 -294h166z" />
    <glyph glyph-name="Aring" unicode="&#xc5;" 
d="M298 766q-32 0 -46 14t-14 46v60q0 32 14 46t46 14h72q32 0 46 -14t14 -46v-60q0 -32 -14 -46t-46 -14h-72zM300 834q0 -8 2 -10t10 -2h44q8 0 10 2t2 10v44q0 8 -2 10t-10 2h-44q-8 0 -10 -2t-2 -10v-44zM211 152l-43 -152h-152l213 700h210l213 -700h-158l-43 152h-240
zM331 578l-83 -294h166z" />
    <glyph glyph-name="AE" unicode="&#xc6;" horiz-adv-x="1014" 
d="M639 424h265v-132h-265v-160h327v-132h-471v158h-251l-78 -158h-163l363 700h600v-132h-327v-144zM495 566h-50l-136 -276h186v276z" />
    <glyph glyph-name="Ccedilla" unicode="&#xc7;" horiz-adv-x="623" 
d="M430 548q0 20 -20 20h-184q-20 0 -20 -20v-396q0 -20 20 -20h184q20 0 20 20v102h144v-114q0 -140 -140 -140h-57v-66q0 -28 -6 -46t-18 -28.5t-29.5 -15t-40.5 -4.5h-83l-50 78h103q20 0 20 20v62h-71q-140 0 -140 140v420q0 140 140 140h232q140 0 140 -140v-114h-144
v102z" />
    <glyph glyph-name="Egrave" unicode="&#xc8;" horiz-adv-x="598" 
d="M276 766l-149 144h175l90 -144h-116zM79 700v-700h471v132h-327v161h265v130h-265v145h327v132h-471z" />
    <glyph glyph-name="Eacute" unicode="&#xc9;" horiz-adv-x="598" 
d="M242 766l90 144h175l-149 -144h-116zM550 700v-132h-327v-145h265v-130h-265v-161h327v-132h-471v700h471z" />
    <glyph glyph-name="Ecircumflex" unicode="&#xca;" horiz-adv-x="598" 
d="M256 766h-129l130 130h120l130 -130h-129l-61 63zM79 700v-700h471v132h-327v161h265v130h-265v145h327v132h-471z" />
    <glyph glyph-name="Edieresis" unicode="&#xcb;" horiz-adv-x="598" 
d="M151 766v128h130v-128h-130zM353 766v128h130v-128h-130zM550 700v-132h-327v-145h265v-130h-265v-161h327v-132h-471v700h471z" />
    <glyph glyph-name="Igrave" unicode="&#xcc;" horiz-adv-x="302" 
d="M110 766l-149 144h175l90 -144h-116zM79 0h144v700h-144v-700z" />
    <glyph glyph-name="Iacute" unicode="&#xcd;" horiz-adv-x="302" 
d="M76 766l90 144h175l-149 -144h-116zM79 700h144v-700h-144v700z" />
    <glyph glyph-name="Icircumflex" unicode="&#xce;" horiz-adv-x="302" 
d="M90 766h-129l130 130h120l130 -130h-129l-61 63zM79 0h144v700h-144v-700z" />
    <glyph glyph-name="Idieresis" unicode="&#xcf;" horiz-adv-x="302" 
d="M-15 766v128h130v-128h-130zM187 766v128h130v-128h-130zM79 700h144v-700h-144v700z" />
    <glyph glyph-name="Eth" unicode="&#xd0;" horiz-adv-x="656" 
d="M454 700q140 0 140 -140v-420q0 -140 -140 -140h-383v290h-72v144h72v266h383zM450 548q0 20 -20 20h-215v-134h72v-144h-72v-158h215q20 0 20 20v396z" />
    <glyph glyph-name="Ntilde" unicode="&#xd1;" horiz-adv-x="713" 
d="M270 764h-74v25q0 58 24.5 85t59.5 27q22 0 41.5 -7t36.5 -16t33 -16t32 -7q21 0 21 21v19h76v-25q0 -58 -21.5 -85t-56.5 -27q-21 0 -41 7t-38.5 16t-36 16t-33.5 7q-11 0 -17 -4t-6 -17v-19zM494 700v-451l-265 451h-150v-700h140v467l275 -467h140v700h-140z" />
    <glyph glyph-name="Ograve" unicode="&#xd2;" horiz-adv-x="661" 
d="M290 766l-149 144h175l90 -144h-116zM459 0q140 0 140 140v420q0 140 -140 140h-257q-140 0 -140 -140v-420q0 -140 140 -140h257zM206 548q0 20 20 20h209q20 0 20 -20v-396q0 -20 -20 -20h-209q-20 0 -20 20v396z" />
    <glyph glyph-name="Oacute" unicode="&#xd3;" horiz-adv-x="661" 
d="M256 766l90 144h175l-149 -144h-116zM202 0q-140 0 -140 140v420q0 140 140 140h257q140 0 140 -140v-420q0 -140 -140 -140h-257zM206 152q0 -20 20 -20h209q20 0 20 20v396q0 20 -20 20h-209q-20 0 -20 -20v-396z" />
    <glyph glyph-name="Ocircumflex" unicode="&#xd4;" horiz-adv-x="661" 
d="M270 766h-129l130 130h120l130 -130h-129l-61 63zM459 0q140 0 140 140v420q0 140 -140 140h-257q-140 0 -140 -140v-420q0 -140 140 -140h257zM206 548q0 20 20 20h209q20 0 20 -20v-396q0 -20 -20 -20h-209q-20 0 -20 20v396z" />
    <glyph glyph-name="Otilde" unicode="&#xd5;" horiz-adv-x="661" 
d="M244 764h-74v25q0 58 24.5 85t59.5 27q22 0 41.5 -7t36.5 -16t33 -16t32 -7q21 0 21 21v19h76v-25q0 -58 -21.5 -85t-56.5 -27q-21 0 -41 7t-38.5 16t-36 16t-33.5 7q-11 0 -17 -4t-6 -17v-19zM459 0q140 0 140 140v420q0 140 -140 140h-257q-140 0 -140 -140v-420
q0 -140 140 -140h257zM206 548q0 20 20 20h209q20 0 20 -20v-396q0 -20 -20 -20h-209q-20 0 -20 20v396z" />
    <glyph glyph-name="Odieresis" unicode="&#xd6;" horiz-adv-x="661" 
d="M165 766v128h130v-128h-130zM367 766v128h130v-128h-130zM202 0q-140 0 -140 140v420q0 140 140 140h257q140 0 140 -140v-420q0 -140 -140 -140h-257zM206 152q0 -20 20 -20h209q20 0 20 20v396q0 20 -20 20h-209q-20 0 -20 -20v-396z" />
    <glyph glyph-name="multiply" unicode="&#xd7;" horiz-adv-x="508" 
d="M447 223l-82 -82l-110 111l-111 -111l-82 82l111 111l-111 110l82 82l111 -110l110 110l82 -82l-110 -110z" />
    <glyph glyph-name="Oslash" unicode="&#xd8;" horiz-adv-x="649" 
d="M521 687q66 -29 66 -127v-420q0 -140 -140 -140h-202l-24 -60h-124l30 74q-65 30 -65 126v420q0 140 140 140h200l24 60h124zM349 568h-123q-20 0 -20 -20v-336zM423 132q20 0 20 20v341l-145 -361h125z" />
    <glyph glyph-name="Ugrave" unicode="&#xd9;" 
d="M293 766l-149 144h175l90 -144h-116zM596 700h-144v-548q0 -20 -20 -20h-196q-20 0 -20 20v548h-144v-560q0 -140 140 -140h244q140 0 140 140v560z" />
    <glyph glyph-name="Uacute" unicode="&#xda;" 
d="M259 766l90 144h175l-149 -144h-116zM596 140q0 -140 -140 -140h-244q-140 0 -140 140v560h144v-548q0 -20 20 -20h196q20 0 20 20v548h144v-560z" />
    <glyph glyph-name="Ucircumflex" unicode="&#xdb;" 
d="M273 766h-129l130 130h120l130 -130h-129l-61 63zM596 700h-144v-548q0 -20 -20 -20h-196q-20 0 -20 20v548h-144v-560q0 -140 140 -140h244q140 0 140 140v560z" />
    <glyph glyph-name="Udieresis" unicode="&#xdc;" 
d="M168 766v128h130v-128h-130zM370 766v128h130v-128h-130zM596 140q0 -140 -140 -140h-244q-140 0 -140 140v560h144v-548q0 -20 20 -20h196q20 0 20 20v548h144v-560z" />
    <glyph glyph-name="Yacute" unicode="&#xdd;" horiz-adv-x="612" 
d="M232 766l90 144h175l-149 -144h-116zM234 0v239l-228 461h156l145 -312l145 312h154l-228 -461v-239h-144z" />
    <glyph glyph-name="Thorn" unicode="&#xde;" horiz-adv-x="626" 
d="M223 578h226q140 0 140 -140v-166q0 -140 -140 -140h-226v-132h-144v700h144v-122zM425 264q20 0 20 20v142q0 20 -20 20h-202v-182h202z" />
    <glyph glyph-name="germandbls" unicode="&#xdf;" horiz-adv-x="575" 
d="M513 539q0 -39 -3.5 -66t-11 -45.5t-19.5 -31t-29 -22.5q19 -9 32.5 -21.5t22 -32t12.5 -49t4 -71.5q0 -59 -8 -98t-24 -61.5t-40.5 -31.5t-57.5 -9h-135v120h103q6 0 10 2.5t7 12t4 29t1 54.5q0 34 -1 54t-4 29.5t-7 12t-10 2.5h-103v116h95q6 0 10 2t7 11t4 27t1 49
t-1 49t-4 27t-7 11t-10 2h-130q-22 0 -22 -22v-588h-138v600q0 67 32 98.5t98 31.5h192q33 0 57.5 -9t40.5 -30.5t24 -58.5t8 -93z" />
    <glyph glyph-name="agrave" unicode="&#xe0;" horiz-adv-x="554" 
d="M243 606l-149 144h175l90 -144h-116zM190 540q-67 0 -98.5 -31.5t-31.5 -98.5v-37h136v32q0 22 22 22h116q22 0 22 -22v-72q-51 -2 -96 -6.5t-78 -9.5t-59 -15.5t-44 -30t-27.5 -49t-9.5 -71.5q0 -84 33.5 -119.5t111.5 -35.5q37 0 63 6.5t45 18.5t33 28t28 35v-84h138
v410q0 67 -31.5 98.5t-98.5 31.5h-174zM356 245v-89q-15 -8 -30 -15.5t-31.5 -13.5t-36 -9.5t-44.5 -3.5q-23 0 -29.5 9.5t-6.5 41.5q0 31 7.5 40t27.5 13z" />
    <glyph glyph-name="aacute" unicode="&#xe1;" horiz-adv-x="554" 
d="M209 606l90 144h175l-149 -144h-116zM364 540q67 0 98.5 -31.5t31.5 -98.5v-410h-138v84q-14 -19 -28 -35t-33 -28t-45 -18.5t-63 -6.5q-78 0 -111.5 35.5t-33.5 119.5q0 42 9.5 71.5t27.5 49t44 30t59 15.5t78 9.5t96 6.5v72q0 22 -22 22h-116q-22 0 -22 -22v-32h-136
v37q0 67 31.5 98.5t98.5 31.5h174zM213 218q-20 -4 -27.5 -13t-7.5 -40q0 -32 6.5 -41.5t29.5 -9.5q25 0 44.5 3.5t36 9.5t31.5 13.5t30 15.5v89z" />
    <glyph glyph-name="acircumflex" unicode="&#xe2;" horiz-adv-x="554" 
d="M223 606h-129l130 130h120l130 -130h-129l-61 63zM190 540q-67 0 -98.5 -31.5t-31.5 -98.5v-37h136v32q0 22 22 22h116q22 0 22 -22v-72q-51 -2 -96 -6.5t-78 -9.5t-59 -15.5t-44 -30t-27.5 -49t-9.5 -71.5q0 -84 33.5 -119.5t111.5 -35.5q37 0 63 6.5t45 18.5t33 28
t28 35v-84h138v410q0 67 -31.5 98.5t-98.5 31.5h-174zM356 245v-89q-15 -8 -30 -15.5t-31.5 -13.5t-36 -9.5t-44.5 -3.5q-23 0 -29.5 9.5t-6.5 41.5q0 31 7.5 40t27.5 13z" />
    <glyph glyph-name="atilde" unicode="&#xe3;" horiz-adv-x="554" 
d="M197 604h-74v25q0 58 24.5 85t59.5 27q22 0 41.5 -7t36.5 -16t33 -16t32 -7q21 0 21 21v19h76v-25q0 -58 -21.5 -85t-56.5 -27q-21 0 -41 7t-38.5 16t-36 16t-33.5 7q-11 0 -17 -4t-6 -17v-19zM190 540q-67 0 -98.5 -31.5t-31.5 -98.5v-37h136v32q0 22 22 22h116
q22 0 22 -22v-72q-51 -2 -96 -6.5t-78 -9.5t-59 -15.5t-44 -30t-27.5 -49t-9.5 -71.5q0 -84 33.5 -119.5t111.5 -35.5q37 0 63 6.5t45 18.5t33 28t28 35v-84h138v410q0 67 -31.5 98.5t-98.5 31.5h-174zM356 245v-89q-15 -8 -30 -15.5t-31.5 -13.5t-36 -9.5t-44.5 -3.5
q-23 0 -29.5 9.5t-6.5 41.5q0 31 7.5 40t27.5 13z" />
    <glyph glyph-name="adieresis" unicode="&#xe4;" horiz-adv-x="554" 
d="M118 606v128h130v-128h-130zM320 606v128h130v-128h-130zM364 540q67 0 98.5 -31.5t31.5 -98.5v-410h-138v84q-14 -19 -28 -35t-33 -28t-45 -18.5t-63 -6.5q-78 0 -111.5 35.5t-33.5 119.5q0 42 9.5 71.5t27.5 49t44 30t59 15.5t78 9.5t96 6.5v72q0 22 -22 22h-116
q-22 0 -22 -22v-32h-136v37q0 67 31.5 98.5t98.5 31.5h174zM213 218q-20 -4 -27.5 -13t-7.5 -40q0 -32 6.5 -41.5t29.5 -9.5q25 0 44.5 3.5t36 9.5t31.5 13.5t30 15.5v89z" />
    <glyph glyph-name="aring" unicode="&#xe5;" horiz-adv-x="554" 
d="M248 606q-32 0 -46 14t-14 46v60q0 32 14 46t46 14h72q32 0 46 -14t14 -46v-60q0 -32 -14 -46t-46 -14h-72zM262 730q-8 0 -10 -2t-2 -10v-44q0 -8 2 -10t10 -2h44q8 0 10 2t2 10v44q0 8 -2 10t-10 2h-44zM364 540q67 0 98.5 -31.5t31.5 -98.5v-410h-138v84
q-14 -19 -28 -35t-33 -28t-45 -18.5t-63 -6.5q-78 0 -111.5 35.5t-33.5 119.5q0 42 9.5 71.5t27.5 49t44 30t59 15.5t78 9.5t96 6.5v72q0 22 -22 22h-116q-22 0 -22 -22v-32h-136v37q0 67 31.5 98.5t98.5 31.5h174zM213 218q-20 -4 -27.5 -13t-7.5 -40q0 -32 6.5 -41.5
t29.5 -9.5q25 0 44.5 3.5t36 9.5t31.5 13.5t30 15.5v89z" />
    <glyph glyph-name="ae" unicode="&#xe6;" horiz-adv-x="853" 
d="M494 134q0 -22 22 -22h127q22 0 22 22v42h138v-46q0 -67 -31.5 -98.5t-98.5 -31.5h-187q-108 0 -126 87q-11 -17 -26.5 -33.5t-36.5 -29.5t-48.5 -20.5t-61.5 -7.5q-78 0 -111.5 36.5t-33.5 120.5q0 42 9.5 71.5t27.5 48.5t44 29t59 15t78 9.5t96 6.5v72q0 22 -22 22
h-116q-22 0 -22 -22v-32h-136v37q0 67 31.5 98.5t98.5 31.5h164q29 0 47.5 -10.5t23.5 -24.5q5 14 23.5 24.5t47.5 10.5h177q67 0 98.5 -31.5t31.5 -98.5v-179h-309v-97zM665 406q0 22 -22 22h-127q-22 0 -22 -22v-82h171v82zM213 218q-20 -4 -27.5 -12t-7.5 -39
q0 -32 6.5 -42.5t29.5 -10.5q25 0 44.5 3t36 8t31.5 12t30 15v93z" />
    <glyph glyph-name="ccedilla" unicode="&#xe7;" horiz-adv-x="531" 
d="M349 398q0 22 -22 22h-113q-22 0 -22 -22v-256q0 -22 22 -22h113q22 0 22 22v56h138v-68q0 -67 -31.5 -98.5t-98.5 -31.5h-29v-66q0 -28 -6 -46t-18 -28.5t-29.5 -15t-40.5 -4.5h-83l-50 78h103q20 0 20 20v62h-40q-67 0 -98.5 31.5t-31.5 98.5v280q0 67 31.5 98.5
t98.5 31.5h173q67 0 98.5 -31.5t31.5 -98.5v-68h-138v56z" />
    <glyph glyph-name="egrave" unicode="&#xe8;" horiz-adv-x="551" 
d="M88 750h175l90 -144h-116zM192 134q0 -22 22 -22h127q22 0 22 22v42h138v-46q0 -67 -31.5 -98.5t-98.5 -31.5h-187q-67 0 -98.5 31.5t-31.5 98.5v280q0 67 31.5 98.5t98.5 31.5h187q67 0 98.5 -31.5t31.5 -98.5v-179h-309v-97zM214 428q-22 0 -22 -22v-82h171v82
q0 22 -22 22h-127z" />
    <glyph glyph-name="eacute" unicode="&#xe9;" horiz-adv-x="551" 
d="M203 606l90 144h175l-149 -144h-116zM192 134q0 -22 22 -22h127q22 0 22 22v42h138v-46q0 -67 -31.5 -98.5t-98.5 -31.5h-187q-67 0 -98.5 31.5t-31.5 98.5v280q0 67 31.5 98.5t98.5 31.5h187q67 0 98.5 -31.5t31.5 -98.5v-179h-309v-97zM214 428q-22 0 -22 -22v-82h171
v82q0 22 -22 22h-127z" />
    <glyph glyph-name="ecircumflex" unicode="&#xea;" horiz-adv-x="551" 
d="M88 606l130 130h120l130 -130h-129l-61 63l-61 -63h-129zM192 134q0 -22 22 -22h127q22 0 22 22v42h138v-46q0 -67 -31.5 -98.5t-98.5 -31.5h-187q-67 0 -98.5 31.5t-31.5 98.5v280q0 67 31.5 98.5t98.5 31.5h187q67 0 98.5 -31.5t31.5 -98.5v-179h-309v-97zM214 428
q-22 0 -22 -22v-82h171v82q0 22 -22 22h-127z" />
    <glyph glyph-name="edieresis" unicode="&#xeb;" horiz-adv-x="551" 
d="M112 606v128h130v-128h-130zM314 606v128h130v-128h-130zM192 134q0 -22 22 -22h127q22 0 22 22v42h138v-46q0 -67 -31.5 -98.5t-98.5 -31.5h-187q-67 0 -98.5 31.5t-31.5 98.5v280q0 67 31.5 98.5t98.5 31.5h187q67 0 98.5 -31.5t31.5 -98.5v-179h-309v-97zM214 428
q-22 0 -22 -22v-82h171v82q0 22 -22 22h-127z" />
    <glyph glyph-name="igrave" unicode="&#xec;" horiz-adv-x="268" 
d="M107 586l-149 144h175l90 -144h-116zM203 540h-138v-540h138v540z" />
    <glyph glyph-name="iacute" unicode="&#xed;" horiz-adv-x="268" 
d="M50 586l90 144h175l-149 -144h-116zM203 0h-138v540h138v-540z" />
    <glyph glyph-name="icircumflex" unicode="&#xee;" horiz-adv-x="268" 
d="M73 586h-129l130 130h120l130 -130h-129l-61 63zM203 540h-138v-540h138v540z" />
    <glyph glyph-name="idieresis" unicode="&#xef;" horiz-adv-x="268" 
d="M-32 586v128h130v-128h-130zM170 586v128h130v-128h-130zM203 0h-138v540h138v-540z" />
    <glyph glyph-name="eth" unicode="&#xf0;" horiz-adv-x="570" 
d="M385 671q41 -10 66.5 -24.5t40 -34t19.5 -45t5 -57.5v-380q0 -67 -31.5 -98.5t-98.5 -31.5h-202q-67 0 -98.5 31.5t-31.5 98.5v234q0 75 34 107.5t116 32.5q39 0 66 -6t46.5 -17t33.5 -26.5t28 -34.5v100q0 25 -7 34.5t-27 17.5l-41 15l-38 -38h-116l68 69l-81 30v84
l156 -38l42 43h116zM378 348q-15 8 -30 14t-32 10t-37.5 6t-46.5 2t-33 -6t-7 -26v-206q0 -22 22 -22h142q22 0 22 22v206z" />
    <glyph glyph-name="ntilde" unicode="&#xf1;" horiz-adv-x="579" 
d="M204 604h-74v25q0 58 24.5 85t59.5 27q22 0 41.5 -7t36.5 -16t33 -16t32 -7q21 0 21 21v19h76v-25q0 -58 -21.5 -85t-56.5 -27q-21 0 -41 7t-38.5 16t-36 16t-33.5 7q-11 0 -17 -4t-6 -17v-19zM203 540h-138v-540h138v389q15 8 30 14t31.5 10t36.5 6t45 2q22 0 28.5 -5.5
t6.5 -20.5v-395h138v411q0 70 -33.5 102t-112.5 32q-37 0 -63 -6t-45.5 -17t-34 -26.5t-27.5 -34.5v79z" />
    <glyph glyph-name="ograve" unicode="&#xf2;" horiz-adv-x="561" 
d="M240 606l-149 144h175l90 -144h-116zM184 540q-67 0 -98.5 -31.5t-31.5 -98.5v-280q0 -67 31.5 -98.5t98.5 -31.5h193q67 0 98.5 31.5t31.5 98.5v280q0 67 -31.5 98.5t-98.5 31.5h-193zM369 142q0 -22 -22 -22h-133q-22 0 -22 22v256q0 22 22 22h133q22 0 22 -22v-256z
" />
    <glyph glyph-name="oacute" unicode="&#xf3;" horiz-adv-x="561" 
d="M206 606l90 144h175l-149 -144h-116zM377 540q67 0 98.5 -31.5t31.5 -98.5v-280q0 -67 -31.5 -98.5t-98.5 -31.5h-193q-67 0 -98.5 31.5t-31.5 98.5v280q0 67 31.5 98.5t98.5 31.5h193zM369 398q0 22 -22 22h-133q-22 0 -22 -22v-256q0 -22 22 -22h133q22 0 22 22v256z
" />
    <glyph glyph-name="ocircumflex" unicode="&#xf4;" horiz-adv-x="561" 
d="M220 606h-129l130 130h120l130 -130h-129l-61 63zM184 540q-67 0 -98.5 -31.5t-31.5 -98.5v-280q0 -67 31.5 -98.5t98.5 -31.5h193q67 0 98.5 31.5t31.5 98.5v280q0 67 -31.5 98.5t-98.5 31.5h-193zM369 142q0 -22 -22 -22h-133q-22 0 -22 22v256q0 22 22 22h133
q22 0 22 -22v-256z" />
    <glyph glyph-name="otilde" unicode="&#xf5;" horiz-adv-x="561" 
d="M194 604h-74v25q0 58 24.5 85t59.5 27q22 0 41.5 -7t36.5 -16t33 -16t32 -7q21 0 21 21v19h76v-25q0 -58 -21.5 -85t-56.5 -27q-21 0 -41 7t-38.5 16t-36 16t-33.5 7q-11 0 -17 -4t-6 -17v-19zM184 540q-67 0 -98.5 -31.5t-31.5 -98.5v-280q0 -67 31.5 -98.5t98.5 -31.5
h193q67 0 98.5 31.5t31.5 98.5v280q0 67 -31.5 98.5t-98.5 31.5h-193zM369 142q0 -22 -22 -22h-133q-22 0 -22 22v256q0 22 22 22h133q22 0 22 -22v-256z" />
    <glyph glyph-name="odieresis" unicode="&#xf6;" horiz-adv-x="561" 
d="M115 606v128h130v-128h-130zM317 606v128h130v-128h-130zM377 540q67 0 98.5 -31.5t31.5 -98.5v-280q0 -67 -31.5 -98.5t-98.5 -31.5h-193q-67 0 -98.5 31.5t-31.5 98.5v280q0 67 31.5 98.5t98.5 31.5h193zM369 398q0 22 -22 22h-133q-22 0 -22 -22v-256q0 -22 22 -22
h133q22 0 22 22v256z" />
    <glyph glyph-name="divide" unicode="&#xf7;" horiz-adv-x="508" 
d="M188 507v132h132v-132h-132zM472 437v-134h-436v134h436zM188 101v132h132v-132h-132z" />
    <glyph glyph-name="oslash" unicode="&#xf8;" horiz-adv-x="553" 
d="M431 531q68 -25 68 -121v-280q0 -67 -31.5 -98.5t-98.5 -31.5h-146l-24 -60h-100l27 68q-72 24 -72 122v280q0 67 31.5 98.5t98.5 31.5h150l24 60h100zM287 420h-73q-22 0 -22 -22v-221zM339 120q22 0 22 22v211l-91 -233h69z" />
    <glyph glyph-name="ugrave" unicode="&#xf9;" horiz-adv-x="579" 
d="M237 606l-149 144h175l90 -144h-116zM376 0h138v540h-138v-389q-15 -8 -30 -14t-31.5 -10t-36.5 -6t-45 -2q-22 0 -28.5 5.5t-6.5 20.5v395h-138v-411q0 -70 33.5 -102t112.5 -32q37 0 63 6t45.5 17t33.5 26.5t28 34.5v-79z" />
    <glyph glyph-name="uacute" unicode="&#xfa;" horiz-adv-x="579" 
d="M203 606l90 144h175l-149 -144h-116zM376 79q-14 -19 -28 -34.5t-33.5 -26.5t-45.5 -17t-63 -6q-79 0 -112.5 32t-33.5 102v411h138v-395q0 -15 6.5 -20.5t28.5 -5.5q25 0 45 2t36.5 6t31.5 10t30 14v389h138v-540h-138v79z" />
    <glyph glyph-name="ucircumflex" unicode="&#xfb;" horiz-adv-x="579" 
d="M217 606h-129l130 130h120l130 -130h-129l-61 63zM376 0h138v540h-138v-389q-15 -8 -30 -14t-31.5 -10t-36.5 -6t-45 -2q-22 0 -28.5 5.5t-6.5 20.5v395h-138v-411q0 -70 33.5 -102t112.5 -32q37 0 63 6t45.5 17t33.5 26.5t28 34.5v-79z" />
    <glyph glyph-name="udieresis" unicode="&#xfc;" horiz-adv-x="579" 
d="M112 606v128h130v-128h-130zM314 606v128h130v-128h-130zM376 79q-14 -19 -28 -34.5t-33.5 -26.5t-45.5 -17t-63 -6q-79 0 -112.5 32t-33.5 102v411h138v-395q0 -15 6.5 -20.5t28.5 -5.5q25 0 45 2t36.5 6t31.5 10t30 14v389h138v-540h-138v79z" />
    <glyph glyph-name="yacute" unicode="&#xfd;" horiz-adv-x="544" 
d="M203 606l90 144h175l-149 -144h-116zM286 -160h-133l52 160l-190 540h148l112 -395l112 395h142z" />
    <glyph glyph-name="thorn" unicode="&#xfe;" horiz-adv-x="581" 
d="M377 544q82 0 116 -32.5t34 -107.5v-268q0 -75 -34 -107.5t-116 -32.5q-39 0 -66 6t-46.5 17t-34 26.5t-27.5 34.5v-240h-138v890h138v-270q13 19 27.5 34.5t34 26.5t46.5 17t66 6zM389 388q0 20 -7 26t-33 6t-46.5 -2t-37.5 -6t-32 -10t-30 -14v-236q15 -8 30 -14
t32 -10t37.5 -6t46.5 -2t33 6t7 26v236z" />
    <glyph glyph-name="ydieresis" unicode="&#xff;" horiz-adv-x="544" 
d="M112 606v128h130v-128h-130zM314 606v128h130v-128h-130zM286 -160h-133l52 160l-190 540h148l112 -395l112 395h142z" />
    <glyph glyph-name="Amacron" unicode="&#x100;" 
d="M196 776v112h276v-112h-276zM211 152l-43 -152h-152l213 700h210l213 -700h-158l-43 152h-240zM331 578l-83 -294h166z" />
    <glyph glyph-name="amacron" unicode="&#x101;" horiz-adv-x="554" 
d="M422 616h-276v112h276v-112zM364 540q67 0 98.5 -31.5t31.5 -98.5v-410h-138v84q-14 -19 -28 -35t-33 -28t-45 -18.5t-63 -6.5q-78 0 -111.5 35.5t-33.5 119.5q0 42 9.5 71.5t27.5 49t44 30t59 15.5t78 9.5t96 6.5v72q0 22 -22 22h-116q-22 0 -22 -22v-32h-136v37
q0 67 31.5 98.5t98.5 31.5h174zM213 218q-20 -4 -27.5 -13t-7.5 -40q0 -32 6.5 -41.5t29.5 -9.5q25 0 44.5 3.5t36 9.5t31.5 13.5t30 15.5v89z" />
    <glyph glyph-name="Abreve" unicode="&#x102;" 
d="M295 766q-80 0 -80 80v55h84v-43q0 -11 3.5 -14.5t14.5 -3.5h34q11 0 14.5 3.5t3.5 14.5v43h84v-55q0 -80 -80 -80h-78zM211 152l-43 -152h-152l213 700h210l213 -700h-158l-43 152h-240zM331 578l-83 -294h166z" />
    <glyph glyph-name="abreve" unicode="&#x103;" horiz-adv-x="554" 
d="M403 686q0 -80 -80 -80h-78q-80 0 -80 80v55h84v-43q0 -11 3.5 -14.5t14.5 -3.5h34q11 0 14.5 3.5t3.5 14.5v43h84v-55zM364 540q67 0 98.5 -31.5t31.5 -98.5v-410h-138v84q-14 -19 -28 -35t-33 -28t-45 -18.5t-63 -6.5q-78 0 -111.5 35.5t-33.5 119.5q0 42 9.5 71.5
t27.5 49t44 30t59 15.5t78 9.5t96 6.5v72q0 22 -22 22h-116q-22 0 -22 -22v-32h-136v37q0 67 31.5 98.5t98.5 31.5h174zM213 218q-20 -4 -27.5 -13t-7.5 -40q0 -32 6.5 -41.5t29.5 -9.5q25 0 44.5 3.5t36 9.5t31.5 13.5t30 15.5v89z" />
    <glyph glyph-name="Aogonek" unicode="&#x104;" 
d="M664 -177h-100q-22 0 -39 6.5t-25.5 19t-7 30.5t15.5 42l48 79h-62l-43 152h-240l-43 -152h-152l213 700h210l213 -700l-50 -81q-12 -20 9 -20h53v-76zM331 578l-83 -294h166z" />
    <glyph glyph-name="aogonek" unicode="&#x105;" horiz-adv-x="554" 
d="M506 -177h-100q-22 0 -39 6.5t-25.5 19t-7 30.5t15.5 42l48 79h-42v84q-14 -19 -28 -35t-33 -28t-45 -18.5t-63 -6.5q-78 0 -111.5 35.5t-33.5 119.5q0 42 9.5 71.5t27.5 49t44 30t59 15.5t78 9.5t96 6.5v72q0 22 -22 22h-116q-22 0 -22 -22v-32h-136v37q0 67 31.5 98.5
t98.5 31.5h174q67 0 98.5 -31.5t31.5 -98.5v-410l-50 -81q-12 -20 9 -20h53v-76zM213 218q-20 -4 -27.5 -13t-7.5 -40q0 -32 6.5 -41.5t29.5 -9.5q25 0 44.5 3.5t36 9.5t31.5 13.5t30 15.5v89z" />
    <glyph glyph-name="Cacute" unicode="&#x106;" horiz-adv-x="623" 
d="M243 766l90 144h175l-149 -144h-116zM202 0q-140 0 -140 140v420q0 140 140 140h232q140 0 140 -140v-114h-144v102q0 20 -20 20h-184q-20 0 -20 -20v-396q0 -20 20 -20h184q20 0 20 20v102h144v-114q0 -140 -140 -140h-232z" />
    <glyph glyph-name="cacute" unicode="&#x107;" horiz-adv-x="531" 
d="M198 606l90 144h175l-149 -144h-116zM357 540q67 0 98.5 -31.5t31.5 -98.5v-68h-138v56q0 22 -22 22h-113q-22 0 -22 -22v-256q0 -22 22 -22h113q22 0 22 22v56h138v-68q0 -67 -31.5 -98.5t-98.5 -31.5h-173q-67 0 -98.5 31.5t-31.5 98.5v280q0 67 31.5 98.5t98.5 31.5
h173z" />
    <glyph glyph-name="Cdotaccent" unicode="&#x10a;" horiz-adv-x="623" 
d="M253 766v128h130v-128h-130zM202 0q-140 0 -140 140v420q0 140 140 140h232q140 0 140 -140v-114h-144v102q0 20 -20 20h-184q-20 0 -20 -20v-396q0 -20 20 -20h184q20 0 20 20v102h144v-114q0 -140 -140 -140h-232z" />
    <glyph glyph-name="cdotaccent" unicode="&#x10b;" horiz-adv-x="531" 
d="M208 606v128h130v-128h-130zM357 540q67 0 98.5 -31.5t31.5 -98.5v-68h-138v56q0 22 -22 22h-113q-22 0 -22 -22v-256q0 -22 22 -22h113q22 0 22 22v56h138v-68q0 -67 -31.5 -98.5t-98.5 -31.5h-173q-67 0 -98.5 31.5t-31.5 98.5v280q0 67 31.5 98.5t98.5 31.5h173z" />
    <glyph glyph-name="Ccaron" unicode="&#x10c;" horiz-adv-x="623" 
d="M258 766l-130 130h129l61 -63l61 63h129l-130 -130h-120zM434 0q140 0 140 140v114h-144v-102q0 -20 -20 -20h-184q-20 0 -20 20v396q0 20 20 20h184q20 0 20 -20v-102h144v114q0 140 -140 140h-232q-140 0 -140 -140v-420q0 -140 140 -140h232z" />
    <glyph glyph-name="ccaron" unicode="&#x10d;" horiz-adv-x="531" 
d="M213 606l-130 130h129l61 -63l61 63h129l-130 -130h-120zM184 540q-67 0 -98.5 -31.5t-31.5 -98.5v-280q0 -67 31.5 -98.5t98.5 -31.5h173q67 0 98.5 31.5t31.5 98.5v68h-138v-56q0 -22 -22 -22h-113q-22 0 -22 22v256q0 22 22 22h113q22 0 22 -22v-56h138v68
q0 67 -31.5 98.5t-98.5 31.5h-173z" />
    <glyph glyph-name="Dcaron" unicode="&#x10e;" horiz-adv-x="664" 
d="M270 766l-130 130h129l61 -63l61 63h129l-130 -130h-120zM79 700v-700h383q140 0 140 140v420q0 140 -140 140h-383zM223 132v436h215q20 0 20 -20v-396q0 -20 -20 -20h-215z" />
    <glyph glyph-name="dcaron" unicode="&#x10f;" horiz-adv-x="581" 
d="M204 544q39 0 66 -6t46.5 -17t33.5 -26.5t28 -34.5v270h138v-730h-138v80q-14 -19 -28 -34.5t-33.5 -26.5t-46.5 -17t-66 -6q-82 0 -116 32.5t-34 107.5v268q0 75 34 107.5t116 32.5zM737 622q0 -29 -11 -51.5t-37 -52.5l-69 -78h-56l77 134h-64v156h160v-108zM192 152
q0 -20 7 -26t33 -6t46.5 2t37.5 6t32 10t30 14v236q-15 8 -30 14t-32 10t-37.5 6t-46.5 2t-33 -6t-7 -26v-236z" />
    <glyph glyph-name="Dcroat" unicode="&#x110;" horiz-adv-x="656" 
d="M454 700q140 0 140 -140v-420q0 -140 -140 -140h-383v290h-72v144h72v266h383zM450 548q0 20 -20 20h-215v-134h72v-144h-72v-158h215q20 0 20 20v396z" />
    <glyph glyph-name="dcroat" unicode="&#x111;" horiz-adv-x="581" 
d="M516 567v-567h-138v80q-14 -19 -28 -34.5t-33.5 -26.5t-46.5 -17t-66 -6q-82 0 -116 32.5t-34 107.5v268q0 75 34 107.5t116 32.5q39 0 66 -6t46.5 -17t33.5 -26.5t28 -34.5v107h-104v92h104v71h138v-71h50v-92h-50zM378 388q-15 8 -30 14t-32 10t-37.5 6t-46.5 2t-33 -6
t-7 -26v-236q0 -20 7 -26t33 -6t46.5 2t37.5 6t32 10t30 14v236z" />
    <glyph glyph-name="Emacron" unicode="&#x112;" horiz-adv-x="598" 
d="M455 776h-276v112h276v-112zM550 700v-132h-327v-145h265v-130h-265v-161h327v-132h-471v700h471z" />
    <glyph glyph-name="emacron" unicode="&#x113;" horiz-adv-x="551" 
d="M140 616v112h276v-112h-276zM192 134q0 -22 22 -22h127q22 0 22 22v42h138v-46q0 -67 -31.5 -98.5t-98.5 -31.5h-187q-67 0 -98.5 31.5t-31.5 98.5v280q0 67 31.5 98.5t98.5 31.5h187q67 0 98.5 -31.5t31.5 -98.5v-179h-309v-97zM214 428q-22 0 -22 -22v-82h171v82
q0 22 -22 22h-127z" />
    <glyph glyph-name="Edotaccent" unicode="&#x116;" horiz-adv-x="598" 
d="M252 766v128h130v-128h-130zM550 700v-132h-327v-145h265v-130h-265v-161h327v-132h-471v700h471z" />
    <glyph glyph-name="edotaccent" unicode="&#x117;" horiz-adv-x="551" 
d="M213 606v128h130v-128h-130zM192 134q0 -22 22 -22h127q22 0 22 22v42h138v-46q0 -67 -31.5 -98.5t-98.5 -31.5h-187q-67 0 -98.5 31.5t-31.5 98.5v280q0 67 31.5 98.5t98.5 31.5h187q67 0 98.5 -31.5t31.5 -98.5v-179h-309v-97zM214 428q-22 0 -22 -22v-82h171v82
q0 22 -22 22h-127z" />
    <glyph glyph-name="Eogonek" unicode="&#x118;" horiz-adv-x="598" 
d="M562 -177h-100q-22 0 -39 6.5t-25.5 19t-7 30.5t15.5 42l48 79h-375v700h471v-132h-327v-145h265v-130h-265v-161h327v-132l-50 -81q-12 -20 9 -20h53v-76z" />
    <glyph glyph-name="eogonek" unicode="&#x119;" horiz-adv-x="551" 
d="M192 134q0 -22 22 -22h127q22 0 22 22v42h138v-46q0 -67 -31.5 -98.5t-98.5 -31.5h-31l-50 -81q-12 -20 9 -20h53v-76h-100q-22 0 -39 6.5t-25.5 19t-7 30.5t15.5 42l48 79h-60q-67 0 -98.5 31.5t-31.5 98.5v280q0 67 31.5 98.5t98.5 31.5h187q67 0 98.5 -31.5
t31.5 -98.5v-179h-309v-97zM214 428q-22 0 -22 -22v-82h171v82q0 22 -22 22h-127z" />
    <glyph glyph-name="Ecaron" unicode="&#x11a;" horiz-adv-x="598" 
d="M257 766l-130 130h129l61 -63l61 63h129l-130 -130h-120zM79 700v-700h471v132h-327v161h265v130h-265v145h327v132h-471z" />
    <glyph glyph-name="ecaron" unicode="&#x11b;" horiz-adv-x="551" 
d="M88 736h129l61 -63l61 63h129l-130 -130h-120zM192 134q0 -22 22 -22h127q22 0 22 22v42h138v-46q0 -67 -31.5 -98.5t-98.5 -31.5h-187q-67 0 -98.5 31.5t-31.5 98.5v280q0 67 31.5 98.5t98.5 31.5h187q67 0 98.5 -31.5t31.5 -98.5v-179h-309v-97zM214 428q-22 0 -22 -22
v-82h171v82q0 22 -22 22h-127z" />
    <glyph glyph-name="Gbreve" unicode="&#x11e;" horiz-adv-x="642" 
d="M442 846q0 -80 -80 -80h-78q-80 0 -80 80v55h84v-43q0 -11 3.5 -14.5t14.5 -3.5h34q11 0 14.5 3.5t3.5 14.5v43h84v-55zM439 548q0 20 -20 20h-193q-20 0 -20 -20v-396q0 -20 20 -20h193q20 0 20 20v108h-132v126h276v-246q0 -140 -140 -140h-241q-140 0 -140 140v420
q0 140 140 140h241q140 0 140 -140v-92h-144v80z" />
    <glyph glyph-name="gbreve" unicode="&#x11f;" horiz-adv-x="581" 
d="M409 686q0 -80 -80 -80h-78q-80 0 -80 80v55h84v-43q0 -11 3.5 -14.5t14.5 -3.5h34q11 0 14.5 3.5t3.5 14.5v43h84v-55zM516 -30q0 -67 -31.5 -98.5t-98.5 -31.5h-262v110h232q22 0 22 22v132q-14 -19 -28 -34.5t-33.5 -26.5t-46.5 -17t-66 -6q-82 0 -116 32.5t-34 107.5
v244q0 75 34 107.5t116 32.5q39 0 66 -6t46.5 -17t33.5 -26.5t28 -34.5v80h138v-570zM192 166q0 -12 7 -17t33 -5t46.5 2t37.5 6t32 10t30 14v212q-15 8 -30 14t-32 10t-37.5 6t-46.5 2t-33 -5t-7 -17v-232z" />
    <glyph glyph-name="Gdotaccent" unicode="&#x120;" horiz-adv-x="642" 
d="M258 766v128h130v-128h-130zM439 548q0 20 -20 20h-193q-20 0 -20 -20v-396q0 -20 20 -20h193q20 0 20 20v108h-132v126h276v-246q0 -140 -140 -140h-241q-140 0 -140 140v420q0 140 140 140h241q140 0 140 -140v-92h-144v80z" />
    <glyph glyph-name="gdotaccent" unicode="&#x121;" horiz-adv-x="581" 
d="M225 606v128h130v-128h-130zM516 -30q0 -67 -31.5 -98.5t-98.5 -31.5h-262v110h232q22 0 22 22v132q-14 -19 -28 -34.5t-33.5 -26.5t-46.5 -17t-66 -6q-82 0 -116 32.5t-34 107.5v244q0 75 34 107.5t116 32.5q39 0 66 -6t46.5 -17t33.5 -26.5t28 -34.5v80h138v-570z
M192 166q0 -12 7 -17t33 -5t46.5 2t37.5 6t32 10t30 14v212q-15 8 -30 14t-32 10t-37.5 6t-46.5 2t-33 -5t-7 -17v-232z" />
    <glyph glyph-name="uni0122" unicode="&#x122;" horiz-adv-x="642" 
d="M439 548q0 20 -20 20h-193q-20 0 -20 -20v-396q0 -20 20 -20h193q20 0 20 20v108h-132v126h276v-246q0 -140 -140 -140h-241q-140 0 -140 140v420q0 140 140 140h241q140 0 140 -140v-92h-144v80zM393 -178q0 -22 -15 -46.5t-33 -47.5l-59 -78h-56l77 134h-54v146h140
v-108z" />
    <glyph glyph-name="uni0123" unicode="&#x123;" horiz-adv-x="581" 
d="M212 724q0 22 15 46.5t33 47.5l59 78h56l-77 -134h54v-146h-140v108zM516 -30q0 -67 -31.5 -98.5t-98.5 -31.5h-262v110h232q22 0 22 22v132q-14 -19 -28 -34.5t-33.5 -26.5t-46.5 -17t-66 -6q-82 0 -116 32.5t-34 107.5v244q0 75 34 107.5t116 32.5q39 0 66 -6t46.5 -17
t33.5 -26.5t28 -34.5v80h138v-570zM192 166q0 -12 7 -17t33 -5t46.5 2t37.5 6t32 10t30 14v212q-15 8 -30 14t-32 10t-37.5 6t-46.5 2t-33 -5t-7 -17v-232z" />
    <glyph glyph-name="Hbar" unicode="&#x126;" horiz-adv-x="700" 
d="M618 515v-515h-144v302h-248v-302h-144v515h-74v100h74v105h144v-105h248v105h144v-105h74v-100h-74zM226 515v-81h248v81h-248z" />
    <glyph glyph-name="hbar" unicode="&#x127;" horiz-adv-x="579" 
d="M373 545q79 0 112.5 -32t33.5 -102v-411h-138v395q0 15 -6.5 20.5t-28.5 5.5q-25 0 -45 -2t-36.5 -6t-31.5 -10t-30 -14v-389h-138v567h-50v92h50v71h138v-71h104v-92h-104v-106q13 19 27.5 34.5t34 26.5t45.5 17t63 6z" />
    <glyph glyph-name="Imacron" unicode="&#x12a;" horiz-adv-x="302" 
d="M289 776h-276v112h276v-112zM79 700h144v-700h-144v700z" />
    <glyph glyph-name="imacron" unicode="&#x12b;" horiz-adv-x="268" 
d="M272 604h-276v112h276v-112zM203 0h-138v540h138v-540z" />
    <glyph glyph-name="Iogonek" unicode="&#x12e;" horiz-adv-x="302" 
d="M235 -177h-100q-22 0 -39 6.5t-25.5 19t-7 30.5t15.5 42l48 79h-48v700h144v-700l-50 -81q-12 -20 9 -20h53v-76z" />
    <glyph glyph-name="iogonek" unicode="&#x12f;" horiz-adv-x="268" 
d="M61 600v130h146v-130h-146zM215 -177h-100q-22 0 -39 6.5t-25.5 19t-7 30.5t15.5 42l48 79h-42v540h138v-540l-50 -81q-12 -20 9 -20h53v-76z" />
    <glyph glyph-name="Idotaccent" unicode="&#x130;" horiz-adv-x="302" 
d="M86 766v128h130v-128h-130zM79 700h144v-700h-144v700z" />
    <glyph glyph-name="IJ" unicode="&#x132;" horiz-adv-x="874" 
d="M79 700h144v-700h-144v700zM802 140q0 -140 -140 -140h-193q-140 0 -140 140v156h144v-144q0 -20 20 -20h145q20 0 20 20v548h144v-560z" />
    <glyph glyph-name="ij" unicode="&#x133;" horiz-adv-x="552" 
d="M61 600v130h146v-130h-146zM345 600v130h146v-130h-146zM203 0h-138v540h138v-540zM487 -29q0 -32 -9 -53.5t-25.5 -36.5t-40.5 -24t-55 -15l-105 -22v92l79 42q8 4 13 9.5t5 14.5v562h138v-569z" />
    <glyph glyph-name="uni0136" unicode="&#x136;" horiz-adv-x="659" 
d="M488 0l-165 303l-102 -129v-174h-142v700h142v-328l249 328h169l-219 -276l230 -424h-162zM416 -70v-108q0 -22 -15 -46.5t-33 -47.5l-59 -78h-56l77 134h-54v146h140z" />
    <glyph glyph-name="uni0137" unicode="&#x137;" horiz-adv-x="552" 
d="M394 -1l-117 224l-76 -95v-128h-136v730h136v-424l168 234h163l-168 -209l178 -331zM355 -70v-108q0 -22 -15 -46.5t-33 -47.5l-59 -78h-56l77 134h-54v146h140z" />
    <glyph glyph-name="Lacute" unicode="&#x139;" horiz-adv-x="555" 
d="M76 766l90 144h175l-149 -144h-116zM223 700v-568h302v-132h-446v700h144z" />
    <glyph glyph-name="lacute" unicode="&#x13a;" horiz-adv-x="264" 
d="M57 796l90 144h175l-149 -144h-116zM201 730v-730h-138v730h138z" />
    <glyph glyph-name="uni013B" unicode="&#x13b;" horiz-adv-x="555" 
d="M223 700v-568h302v-132h-446v700h144zM372 -178q0 -22 -15 -46.5t-33 -47.5l-59 -78h-56l77 134h-54v146h140v-108z" />
    <glyph glyph-name="uni013C" unicode="&#x13c;" horiz-adv-x="264" 
d="M201 730v-730h-138v730h138zM202 -178q0 -22 -15 -46.5t-33 -47.5l-59 -78h-56l77 134h-54v146h140v-108z" />
    <glyph glyph-name="Lcaron" unicode="&#x13d;" horiz-adv-x="555" 
d="M462 602q0 -29 -11 -51.5t-37 -52.5l-69 -78h-56l77 134h-64v156h160v-108zM223 700v-568h302v-132h-446v700h144z" />
    <glyph glyph-name="lcaron" unicode="&#x13e;" horiz-adv-x="423" 
d="M201 730v-730h-138v730h138zM413 622q0 -22 -15 -46.5t-33 -47.5l-59 -78h-56l77 134h-54v146h140v-108z" />
    <glyph glyph-name="Ldot" unicode="&#x13f;" horiz-adv-x="555" 
d="M223 700v-568h302v-132h-446v700h144zM338 300v156h160v-156h-160z" />
    <glyph glyph-name="ldot" unicode="&#x140;" horiz-adv-x="425" 
d="M201 730v-730h-138v730h138zM273 314v146h140v-146h-140z" />
    <glyph glyph-name="Lslash" unicode="&#x141;" horiz-adv-x="555" 
d="M525 0h-446v301l-64 -25v133l64 25v286h144v-231l136 52v-133l-136 -52v-224h302v-132z" />
    <glyph glyph-name="lslash" unicode="&#x142;" horiz-adv-x="344" 
d="M241 360v-360h-138v304l-93 -38v133l93 38v293h138v-237l93 38v-133z" />
    <glyph glyph-name="Nacute" unicode="&#x143;" horiz-adv-x="713" 
d="M282 766l90 144h175l-149 -144h-116zM634 700v-700h-140l-275 467v-467h-140v700h150l265 -451v451h140z" />
    <glyph glyph-name="nacute" unicode="&#x144;" horiz-adv-x="579" 
d="M216 606l90 144h175l-149 -144h-116zM203 461q13 19 27.5 34.5t34 26.5t45.5 17t63 6q79 0 112.5 -32t33.5 -102v-411h-138v395q0 15 -6.5 20.5t-28.5 5.5q-25 0 -45 -2t-36.5 -6t-31.5 -10t-30 -14v-389h-138v540h138v-79z" />
    <glyph glyph-name="uni0145" unicode="&#x145;" horiz-adv-x="713" 
d="M634 700v-700h-140l-275 467v-467h-140v700h150l265 -451v451h140zM427 -178q0 -22 -15 -46.5t-33 -47.5l-59 -78h-56l77 134h-54v146h140v-108z" />
    <glyph glyph-name="uni0146" unicode="&#x146;" horiz-adv-x="579" 
d="M203 461q13 19 27.5 34.5t34 26.5t45.5 17t63 6q79 0 112.5 -32t33.5 -102v-411h-138v395q0 15 -6.5 20.5t-28.5 5.5q-25 0 -45 -2t-36.5 -6t-31.5 -10t-30 -14v-389h-138v540h138v-79zM358 -178q0 -22 -15 -46.5t-33 -47.5l-59 -78h-56l77 134h-54v146h140v-108z" />
    <glyph glyph-name="Ncaron" unicode="&#x147;" horiz-adv-x="713" 
d="M297 766l-130 130h129l61 -63l61 63h129l-130 -130h-120zM494 700v-451l-265 451h-150v-700h140v467l275 -467h140v700h-140z" />
    <glyph glyph-name="ncaron" unicode="&#x148;" horiz-adv-x="579" 
d="M231 606l-130 130h129l61 -63l61 63h129l-130 -130h-120zM203 540h-138v-540h138v389q15 8 30 14t31.5 10t36.5 6t45 2q22 0 28.5 -5.5t6.5 -20.5v-395h138v411q0 70 -33.5 102t-112.5 32q-37 0 -63 -6t-45.5 -17t-34 -26.5t-27.5 -34.5v79z" />
    <glyph glyph-name="Eng" unicode="&#x14a;" horiz-adv-x="711" 
d="M632 -20q0 -140 -140 -140h-122v124h111q20 0 20 20v5l-287 478v-467h-135v700h150l268 -449v449h135v-720z" />
    <glyph glyph-name="eng" unicode="&#x14b;" horiz-adv-x="579" 
d="M373 545q79 0 112.5 -32t33.5 -102v-441q0 -63 -33 -96.5t-97 -33.5h-116v120h90q18 0 18 18v417q0 15 -6.5 20.5t-28.5 5.5q-25 0 -45 -2t-36.5 -6t-31.5 -10t-30 -14v-389h-138v540h138v-79q13 19 27.5 34.5t34 26.5t45.5 17t63 6z" />
    <glyph glyph-name="Omacron" unicode="&#x14c;" horiz-adv-x="661" 
d="M469 776h-276v112h276v-112zM202 0q-140 0 -140 140v420q0 140 140 140h257q140 0 140 -140v-420q0 -140 -140 -140h-257zM206 152q0 -20 20 -20h209q20 0 20 20v396q0 20 -20 20h-209q-20 0 -20 -20v-396z" />
    <glyph glyph-name="omacron" unicode="&#x14d;" horiz-adv-x="561" 
d="M419 616h-276v112h276v-112zM377 540q67 0 98.5 -31.5t31.5 -98.5v-280q0 -67 -31.5 -98.5t-98.5 -31.5h-193q-67 0 -98.5 31.5t-31.5 98.5v280q0 67 31.5 98.5t98.5 31.5h193zM369 398q0 22 -22 22h-133q-22 0 -22 -22v-256q0 -22 22 -22h133q22 0 22 22v256z" />
    <glyph glyph-name="Ohungarumlaut" unicode="&#x150;" horiz-adv-x="661" 
d="M277 766h-134l115 145h134zM474 766h-134l115 145h134zM202 0q-140 0 -140 140v420q0 140 140 140h257q140 0 140 -140v-420q0 -140 -140 -140h-257zM206 152q0 -20 20 -20h209q20 0 20 20v396q0 20 -20 20h-209q-20 0 -20 -20v-396z" />
    <glyph glyph-name="ohungarumlaut" unicode="&#x151;" horiz-adv-x="561" 
d="M227 606h-134l115 145h134zM424 606h-134l115 145h134zM377 540q67 0 98.5 -31.5t31.5 -98.5v-280q0 -67 -31.5 -98.5t-98.5 -31.5h-193q-67 0 -98.5 31.5t-31.5 98.5v280q0 67 31.5 98.5t98.5 31.5h193zM369 398q0 22 -22 22h-133q-22 0 -22 -22v-256q0 -22 22 -22h133
q22 0 22 22v256z" />
    <glyph glyph-name="OE" unicode="&#x152;" horiz-adv-x="962" 
d="M852 292h-265v-160h327v-132h-712q-140 0 -140 140v420q0 140 140 140h712v-132h-327v-144h265v-132zM226 568q-20 0 -20 -20v-396q0 -20 20 -20h217v436h-217z" />
    <glyph glyph-name="oe" unicode="&#x153;" horiz-adv-x="866" 
d="M507 134q0 -22 22 -22h127q22 0 22 22v42h138v-46q0 -67 -31.5 -98.5t-98.5 -31.5h-177q-29 0 -47.5 10t-23.5 25q-5 -15 -23.5 -25t-47.5 -10h-183q-67 0 -98.5 31.5t-31.5 98.5v280q0 67 31.5 98.5t98.5 31.5h183q29 0 47.5 -10t23.5 -25q5 15 23.5 25t47.5 10h177
q67 0 98.5 -31.5t31.5 -98.5v-179h-309v-97zM678 406q0 22 -22 22h-127q-22 0 -22 -22v-82h171v82zM369 398q0 22 -22 22h-133q-22 0 -22 -22v-256q0 -22 22 -22h133q22 0 22 22v256z" />
    <glyph glyph-name="Racute" unicode="&#x154;" horiz-adv-x="650" 
d="M245 766l90 144h175l-149 -144h-116zM455 0l-116 247h-116v-247h-144v700h369q140 0 140 -140v-169q0 -118 -97 -136l119 -255h-155zM424 375q20 0 20 20v155q0 20 -20 20h-201v-195h201z" />
    <glyph glyph-name="racute" unicode="&#x155;" horiz-adv-x="422" 
d="M150 606l90 144h175l-149 -144h-116zM332 410q-40 0 -69 -7.5t-60 -24.5v-378h-138v540h138v-84q13 19 27.5 34.5t32 26.5t40.5 17t54 6h43v-130h-68z" />
    <glyph glyph-name="uni0156" unicode="&#x156;" horiz-adv-x="650" 
d="M455 0l-116 247h-116v-247h-144v700h369q140 0 140 -140v-169q0 -118 -97 -136l119 -255h-155zM424 375q20 0 20 20v155q0 20 -20 20h-201v-195h201zM401 -70v-108q0 -22 -15 -46.5t-33 -47.5l-59 -78h-56l77 134h-54v146h140z" />
    <glyph glyph-name="uni0157" unicode="&#x157;" horiz-adv-x="422" 
d="M332 410q-40 0 -69 -7.5t-60 -24.5v-378h-138v540h138v-84q13 19 27.5 34.5t32 26.5t40.5 17t54 6h43v-130h-68zM204 -178q0 -22 -15 -46.5t-33 -47.5l-59 -78h-56l77 134h-54v146h140v-108z" />
    <glyph glyph-name="Rcaron" unicode="&#x158;" horiz-adv-x="650" 
d="M130 896h129l61 -63l61 63h129l-130 -130h-120zM455 0l-116 247h-116v-247h-144v700h369q140 0 140 -140v-169q0 -118 -97 -136l119 -255h-155zM424 375q20 0 20 20v155q0 20 -20 20h-201v-195h201z" />
    <glyph glyph-name="rcaron" unicode="&#x159;" horiz-adv-x="422" 
d="M165 606l-130 130h129l61 -63l61 63h129l-130 -130h-120zM400 410v130h-43q-31 0 -54 -6t-40.5 -17t-32 -26.5t-27.5 -34.5v84h-138v-540h138v378q31 17 60 24.5t69 7.5h68z" />
    <glyph glyph-name="Sacute" unicode="&#x15a;" horiz-adv-x="626" 
d="M237 766l90 144h175l-149 -144h-116zM416 550q0 20 -20 20h-172q-20 0 -20 -20v-76q0 -17 7 -23t27 -11l186 -40q66 -14 105 -45.5t39 -98.5v-116q0 -140 -140 -140h-230q-140 0 -140 140v88h140v-78q0 -20 20 -20h186q20 0 20 20v84q0 17 -7 23t-27 11l-186 40
q-33 7 -59.5 18t-45.5 27.5t-29 40.5t-10 58v108q0 140 140 140h216q140 0 140 -140v-80h-140v70z" />
    <glyph glyph-name="sacute" unicode="&#x15b;" horiz-adv-x="526" 
d="M188 606l90 144h175l-149 -144h-116zM335 410q0 22 -22 22h-105q-12 0 -17 -7.5t-5 -33.5q0 -30 5 -38.5t25 -11.5l149 -24q32 -5 54.5 -14t36.5 -25.5t20.5 -43.5t6.5 -69q0 -93 -31.5 -129t-98.5 -36h-180q-67 0 -98.5 31.5t-31.5 98.5v49h136v-49q0 -22 22 -22h124
q12 0 17 8t5 38q0 17 -1 27t-4 16t-9 8t-16 4l-149 24q-32 5 -54.5 14t-36.5 25t-20.5 42t-6.5 66q0 89 31.5 124.5t98.5 35.5h161q67 0 98.5 -31.5t31.5 -98.5v-40h-136v40z" />
    <glyph glyph-name="Scedilla" unicode="&#x15e;" horiz-adv-x="626" 
d="M424 400q66 -14 105 -45.5t39 -98.5v-116q0 -140 -140 -140h-48v-66q0 -28 -6 -46t-18 -28.5t-29.5 -15t-40.5 -4.5h-83l-50 78h103q20 0 20 20v62h-78q-140 0 -140 140v88h140v-78q0 -20 20 -20h186q20 0 20 20v84q0 17 -7 23t-27 11l-186 40q-33 7 -59.5 18t-45.5 27.5
t-29 40.5t-10 58v108q0 140 140 140h216q140 0 140 -140v-80h-140v70q0 20 -20 20h-172q-20 0 -20 -20v-76q0 -17 7 -23t27 -11z" />
    <glyph glyph-name="scedilla" unicode="&#x15f;" horiz-adv-x="526" 
d="M365 317q32 -5 54.5 -14t36.5 -25.5t20.5 -43.5t6.5 -69q0 -93 -31.5 -129t-98.5 -36h-24v-66q0 -28 -6 -46t-18 -28.5t-29.5 -15t-40.5 -4.5h-83l-50 78h103q20 0 20 20v62h-52q-67 0 -98.5 31.5t-31.5 98.5v49h136v-49q0 -22 22 -22h124q12 0 17 8t5 38q0 17 -1 27
t-4 16t-9 8t-16 4l-149 24q-32 5 -54.5 14t-36.5 25t-20.5 42t-6.5 66q0 89 31.5 124.5t98.5 35.5h161q67 0 98.5 -31.5t31.5 -98.5v-40h-136v40q0 22 -22 22h-105q-12 0 -17 -7.5t-5 -33.5q0 -30 5 -38.5t25 -11.5z" />
    <glyph glyph-name="Scaron" unicode="&#x160;" horiz-adv-x="626" 
d="M252 766l-130 130h129l61 -63l61 63h129l-130 -130h-120zM416 480h140v80q0 140 -140 140h-216q-140 0 -140 -140v-108q0 -34 10 -58t29 -40.5t45.5 -27.5t59.5 -18l186 -40q20 -5 27 -11t7 -23v-84q0 -20 -20 -20h-186q-20 0 -20 20v78h-140v-88q0 -140 140 -140h230
q140 0 140 140v116q0 67 -39 98.5t-105 45.5l-186 40q-20 5 -27 11t-7 23v76q0 20 20 20h172q20 0 20 -20v-70z" />
    <glyph glyph-name="scaron" unicode="&#x161;" horiz-adv-x="526" 
d="M203 606l-130 130h129l61 -63l61 63h129l-130 -130h-120zM335 370h136v40q0 67 -31.5 98.5t-98.5 31.5h-161q-67 0 -98.5 -35.5t-31.5 -124.5q0 -40 6.5 -66t20.5 -42t36.5 -25t54.5 -14l149 -24q10 -2 16 -4t9 -8t4 -16t1 -27q0 -30 -5 -38t-17 -8h-124q-22 0 -22 22v49
h-136v-49q0 -67 31.5 -98.5t98.5 -31.5h180q67 0 98.5 36t31.5 129q0 42 -6.5 69t-20.5 43.5t-36.5 25.5t-54.5 14l-149 24q-20 3 -25 11.5t-5 38.5q0 26 5 33.5t17 7.5h105q22 0 22 -22v-40z" />
    <glyph glyph-name="uni0162" unicode="&#x162;" horiz-adv-x="574" 
d="M549 570h-190v-636q0 -28 -6 -46t-18 -28.5t-29.5 -15t-40.5 -4.5h-83l-50 78h103q20 0 20 20v62h-40v570h-190v130h524v-130z" />
    <glyph glyph-name="uni0163" unicode="&#x163;" horiz-adv-x="386" 
d="M238 136q0 -22 22 -22h94v-180q0 -28 -6 -46t-18 -28.5t-29.5 -15t-40.5 -4.5h-83l-50 78h103q20 0 20 20v62h-20q-67 0 -98.5 31.5t-31.5 98.5v298h-80v112h82v130h134v-130h118v-112h-116v-292z" />
    <glyph glyph-name="Tcaron" unicode="&#x164;" horiz-adv-x="574" 
d="M227 766l-130 130h129l61 -63l61 63h129l-130 -130h-120zM549 570v130h-524v-130h190v-570h144v570h190z" />
    <glyph glyph-name="tcaron" unicode="&#x165;" horiz-adv-x="386" 
d="M433 752q0 -29 -11 -51.5t-37 -52.5l-69 -78h-56l77 134h-64v156h160v-108zM238 136q0 -22 22 -22h94v-114h-124q-67 0 -98.5 31.5t-31.5 98.5v298h-80v112h82v130h134v-130h118v-112h-116v-292z" />
    <glyph glyph-name="Tbar" unicode="&#x166;" horiz-adv-x="574" 
d="M425 776h-276v112h276v-112zM359 570v-570h-144v570h-190v130h524v-130h-190z" />
    <glyph glyph-name="tbar" unicode="&#x167;" horiz-adv-x="386" 
d="M238 340h83v-112h-83v-92q0 -22 22 -22h94v-114h-124q-67 0 -98.5 31.5t-31.5 98.5v98h-55v112h55v88h-80v112h82v130h134v-130h118v-112h-116v-88z" />
    <glyph glyph-name="Umacron" unicode="&#x16a;" 
d="M472 776h-276v112h276v-112zM596 140q0 -140 -140 -140h-244q-140 0 -140 140v560h144v-548q0 -20 20 -20h196q20 0 20 20v548h144v-560z" />
    <glyph glyph-name="umacron" unicode="&#x16b;" horiz-adv-x="579" 
d="M416 616h-276v112h276v-112zM376 79q-14 -19 -28 -34.5t-33.5 -26.5t-45.5 -17t-63 -6q-79 0 -112.5 32t-33.5 102v411h138v-395q0 -15 6.5 -20.5t28.5 -5.5q25 0 45 2t36.5 6t31.5 10t30 14v389h138v-540h-138v79z" />
    <glyph glyph-name="Uring" unicode="&#x16e;" 
d="M298 766q-32 0 -46 14t-14 46v60q0 32 14 46t46 14h72q32 0 46 -14t14 -46v-60q0 -32 -14 -46t-46 -14h-72zM312 890q-8 0 -10 -2t-2 -10v-44q0 -8 2 -10t10 -2h44q8 0 10 2t2 10v44q0 8 -2 10t-10 2h-44zM596 140q0 -140 -140 -140h-244q-140 0 -140 140v560h144v-548
q0 -20 20 -20h196q20 0 20 20v548h144v-560z" />
    <glyph glyph-name="uring" unicode="&#x16f;" horiz-adv-x="579" 
d="M242 606q-32 0 -46 14t-14 46v60q0 32 14 46t46 14h72q32 0 46 -14t14 -46v-60q0 -32 -14 -46t-46 -14h-72zM256 730q-8 0 -10 -2t-2 -10v-44q0 -8 2 -10t10 -2h44q8 0 10 2t2 10v44q0 8 -2 10t-10 2h-44zM376 79q-14 -19 -28 -34.5t-33.5 -26.5t-45.5 -17t-63 -6
q-79 0 -112.5 32t-33.5 102v411h138v-395q0 -15 6.5 -20.5t28.5 -5.5q25 0 45 2t36.5 6t31.5 10t30 14v389h138v-540h-138v79z" />
    <glyph glyph-name="Uhungarumlaut" unicode="&#x170;" 
d="M280 766h-134l115 145h134zM477 766h-134l115 145h134zM596 140q0 -140 -140 -140h-244q-140 0 -140 140v560h144v-548q0 -20 20 -20h196q20 0 20 20v548h144v-560z" />
    <glyph glyph-name="uhungarumlaut" unicode="&#x171;" horiz-adv-x="579" 
d="M224 606h-134l115 145h134zM421 606h-134l115 145h134zM376 79q-14 -19 -28 -34.5t-33.5 -26.5t-45.5 -17t-63 -6q-79 0 -112.5 32t-33.5 102v411h138v-395q0 -15 6.5 -20.5t28.5 -5.5q25 0 45 2t36.5 6t31.5 10t30 14v389h138v-540h-138v79z" />
    <glyph glyph-name="Uogonek" unicode="&#x172;" 
d="M596 140q0 -140 -140 -140h-61l-50 -81q-12 -20 9 -20h53v-76h-100q-22 0 -39 6.5t-25.5 19t-7 30.5t15.5 42l48 79h-87q-140 0 -140 140v560h144v-548q0 -20 20 -20h196q20 0 20 20v548h144v-560z" />
    <glyph glyph-name="uogonek" unicode="&#x173;" horiz-adv-x="579" 
d="M526 -177h-100q-22 0 -39 6.5t-25.5 19t-7 30.5t15.5 42l48 79h-42v79q-14 -19 -28 -34.5t-33.5 -26.5t-45.5 -17t-63 -6q-79 0 -112.5 32t-33.5 102v411h138v-395q0 -15 6.5 -20.5t28.5 -5.5q25 0 45 2t36.5 6t31.5 10t30 14v389h138v-540l-50 -81q-12 -20 9 -20h53v-76
z" />
    <glyph glyph-name="Wcircumflex" unicode="&#x174;" horiz-adv-x="928" 
d="M406 766h-129l130 130h120l130 -130h-129l-61 63zM734 0l176 700h-144l-109 -514l-129 514h-122l-129 -514l-109 514h-150l175 -700h159l115 456l115 -456h152z" />
    <glyph glyph-name="wcircumflex" unicode="&#x175;" horiz-adv-x="786" 
d="M337 606h-129l130 130h120l130 -130h-129l-61 63zM630 0l141 540h-138l-74 -391l-94 391h-134l-94 -391l-74 391h-148l151 -540h144l88 381l88 -381h144z" />
    <glyph glyph-name="Ycircumflex" unicode="&#x176;" horiz-adv-x="612" 
d="M246 766h-129l130 130h120l130 -130h-129l-61 63zM378 0v239l228 461h-154l-145 -312l-145 312h-156l228 -461v-239h144z" />
    <glyph glyph-name="ycircumflex" unicode="&#x177;" horiz-adv-x="544" 
d="M217 606h-129l130 130h120l130 -130h-129l-61 63zM529 540h-142l-112 -395l-112 395h-148l190 -540l-52 -160h133z" />
    <glyph glyph-name="Ydieresis" unicode="&#x178;" horiz-adv-x="612" 
d="M141 766v128h130v-128h-130zM343 766v128h130v-128h-130zM234 0v239l-228 461h156l145 -312l145 312h154l-228 -461v-239h-144z" />
    <glyph glyph-name="Zacute" unicode="&#x179;" horiz-adv-x="598" 
d="M237 766l90 144h175l-149 -144h-116zM374 572h-310v128h488v-108l-328 -464h326v-128h-504v108z" />
    <glyph glyph-name="zacute" unicode="&#x17a;" horiz-adv-x="481" 
d="M169 606l90 144h175l-149 -144h-116zM276 424h-236v116h402v-96l-244 -328h251v-116h-417v98z" />
    <glyph glyph-name="Zdotaccent" unicode="&#x17b;" horiz-adv-x="598" 
d="M247 766v128h130v-128h-130zM374 572h-310v128h488v-108l-328 -464h326v-128h-504v108z" />
    <glyph glyph-name="zdotaccent" unicode="&#x17c;" horiz-adv-x="481" 
d="M179 606v128h130v-128h-130zM276 424h-236v116h402v-96l-244 -328h251v-116h-417v98z" />
    <glyph glyph-name="Zcaron" unicode="&#x17d;" horiz-adv-x="598" 
d="M252 766l-130 130h129l61 -63l61 63h129l-130 -130h-120zM46 108v-108h504v128h-326l328 464v108h-488v-128h310z" />
    <glyph glyph-name="zcaron" unicode="&#x17e;" horiz-adv-x="481" 
d="M184 606l-130 130h129l61 -63l61 63h129l-130 -130h-120zM32 98v-98h417v116h-251l244 328v96h-402v-116h236z" />
    <glyph glyph-name="florin" unicode="&#x192;" horiz-adv-x="464" 
d="M309 568q-20 0 -20 -20v-100h131v-126h-131v-182q0 -140 -140 -140h-115v132h91q20 0 20 20v170h-104v126h104v112q0 140 140 140h145v-132h-121z" />
    <glyph glyph-name="circumflex" unicode="&#x2c6;" horiz-adv-x="660" 
d="M269 766h-129l130 130h120l130 -130h-129l-61 63z" />
    <glyph glyph-name="caron" unicode="&#x2c7;" horiz-adv-x="660" 
d="M270 766l-130 130h129l61 -63l61 63h129l-130 -130h-120z" />
    <glyph glyph-name="breve" unicode="&#x2d8;" horiz-adv-x="618" 
d="M428 846q0 -80 -80 -80h-78q-80 0 -80 80v55h84v-43q0 -11 3.5 -14.5t14.5 -3.5h34q11 0 14.5 3.5t3.5 14.5v43h84v-55z" />
    <glyph glyph-name="dotaccent" unicode="&#x2d9;" horiz-adv-x="438" 
d="M154 766v128h130v-128h-130z" />
    <glyph glyph-name="ring" unicode="&#x2da;" horiz-adv-x="344" 
d="M136 766q-32 0 -46 14t-14 46v60q0 32 14 46t46 14h72q32 0 46 -14t14 -46v-60q0 -32 -14 -46t-46 -14h-72zM150 890q-8 0 -10 -2t-2 -10v-44q0 -8 2 -10t10 -2h44q8 0 10 2t2 10v44q0 8 -2 10t-10 2h-44z" />
    <glyph glyph-name="ogonek" unicode="&#x2db;" horiz-adv-x="384" 
d="M217 -81q-12 -20 9 -20h53v-76h-100q-22 0 -39 6.5t-25.5 19t-7 30.5t15.5 42l48 79h96z" />
    <glyph glyph-name="tilde" unicode="&#x2dc;" horiz-adv-x="610" 
d="M217 764h-74v25q0 58 24.5 85t59.5 27q22 0 41.5 -7t36.5 -16t33 -16t32 -7q21 0 21 21v19h76v-25q0 -58 -21.5 -85t-56.5 -27q-21 0 -41 7t-38.5 16t-36 16t-33.5 7q-11 0 -17 -4t-6 -17v-19z" />
    <glyph glyph-name="hungarumlaut" unicode="&#x2dd;" horiz-adv-x="750" 
d="M286 766h-134l115 145h134zM483 766h-134l115 145h134z" />
    <glyph glyph-name="uni0326" unicode="&#x326;" horiz-adv-x="0" 
d="M253 -178q0 -22 -15 -46.5t-33 -47.5l-59 -78h-56l77 134h-54v146h140v-108z" />
    <glyph glyph-name="Wgrave" unicode="&#x1e80;" horiz-adv-x="928" 
d="M426 766l-149 144h175l90 -144h-116zM734 0l176 700h-144l-109 -514l-129 514h-122l-129 -514l-109 514h-150l175 -700h159l115 456l115 -456h152z" />
    <glyph glyph-name="wgrave" unicode="&#x1e81;" horiz-adv-x="786" 
d="M357 606l-149 144h175l90 -144h-116zM630 0l141 540h-138l-74 -391l-94 391h-134l-94 -391l-74 391h-148l151 -540h144l88 381l88 -381h144z" />
    <glyph glyph-name="Wacute" unicode="&#x1e82;" horiz-adv-x="928" 
d="M392 766l90 144h175l-149 -144h-116zM582 0l-115 456l-115 -456h-159l-175 700h150l109 -514l129 514h122l129 -514l109 514h144l-176 -700h-152z" />
    <glyph glyph-name="wacute" unicode="&#x1e83;" horiz-adv-x="786" 
d="M323 606l90 144h175l-149 -144h-116zM486 0l-88 381l-88 -381h-144l-151 540h148l74 -391l94 391h134l94 -391l74 391h138l-141 -540h-144z" />
    <glyph glyph-name="Wdieresis" unicode="&#x1e84;" horiz-adv-x="928" 
d="M301 766v128h130v-128h-130zM503 766v128h130v-128h-130zM582 0l-115 456l-115 -456h-159l-175 700h150l109 -514l129 514h122l129 -514l109 514h144l-176 -700h-152z" />
    <glyph glyph-name="wdieresis" unicode="&#x1e85;" horiz-adv-x="786" 
d="M232 606v128h130v-128h-130zM434 606v128h130v-128h-130zM486 0l-88 381l-88 -381h-144l-151 540h148l74 -391l94 391h134l94 -391l74 391h138l-141 -540h-144z" />
    <glyph glyph-name="Ygrave" unicode="&#x1ef2;" horiz-adv-x="612" 
d="M266 766l-149 144h175l90 -144h-116zM378 0v239l228 461h-154l-145 -312l-145 312h-156l228 -461v-239h144z" />
    <glyph glyph-name="ygrave" unicode="&#x1ef3;" horiz-adv-x="544" 
d="M237 606l-149 144h175l90 -144h-116zM529 540h-142l-112 -395l-112 395h-148l190 -540l-52 -160h133z" />
    <glyph glyph-name="endash" unicode="&#x2013;" horiz-adv-x="562" 
d="M511 265h-460v128h460v-128z" />
    <glyph glyph-name="emdash" unicode="&#x2014;" horiz-adv-x="802" 
d="M751 265h-700v128h700v-128z" />
    <glyph glyph-name="quoteleft" unicode="&#x2018;" horiz-adv-x="250" 
d="M45 518q0 29 11 51.5t37 52.5l69 78h56l-77 -134h64v-156h-160v108z" />
    <glyph glyph-name="quoteright" unicode="&#x2019;" horiz-adv-x="250" 
d="M205 592q0 -29 -11 -51.5t-37 -52.5l-69 -78h-56l77 134h-64v156h160v-108z" />
    <glyph glyph-name="quotesinglbase" unicode="&#x201a;" horiz-adv-x="250" 
d="M205 48q0 -29 -11 -51.5t-37 -52.5l-69 -78h-56l77 134h-64v156h160v-108z" />
    <glyph glyph-name="quotedblleft" unicode="&#x201c;" horiz-adv-x="456" 
d="M45 518q0 29 11 51.5t37 52.5l69 78h56l-77 -134h64v-156h-160v108zM251 518q0 29 11 51.5t37 52.5l69 78h56l-77 -134h64v-156h-160v108z" />
    <glyph glyph-name="quotedblright" unicode="&#x201d;" horiz-adv-x="456" 
d="M205 592q0 -29 -11 -51.5t-37 -52.5l-69 -78h-56l77 134h-64v156h160v-108zM411 592q0 -29 -11 -51.5t-37 -52.5l-69 -78h-56l77 134h-64v156h160v-108z" />
    <glyph glyph-name="quotedblbase" unicode="&#x201e;" horiz-adv-x="456" 
d="M205 48q0 -29 -11 -51.5t-37 -52.5l-69 -78h-56l77 134h-64v156h160v-108zM411 48q0 -29 -11 -51.5t-37 -52.5l-69 -78h-56l77 134h-64v156h160v-108z" />
    <glyph glyph-name="dagger" unicode="&#x2020;" horiz-adv-x="374" 
d="M250 400v-400h-126v400h-104v120h104v180h126v-180h104v-120h-104z" />
    <glyph glyph-name="daggerdbl" unicode="&#x2021;" horiz-adv-x="374" 
d="M250 300h104v-120h-104v-180h-126v180h-104v120h104v100h-104v120h104v180h126v-180h104v-120h-104v-100z" />
    <glyph glyph-name="bullet" unicode="&#x2022;" horiz-adv-x="428" 
d="M214 250q-63 0 -87.5 24.5t-24.5 87.5t24.5 87.5t87.5 24.5t87.5 -24.5t24.5 -87.5t-24.5 -87.5t-87.5 -24.5z" />
    <glyph glyph-name="ellipsis" unicode="&#x2026;" horiz-adv-x="690" 
d="M45 0v156h160v-156h-160zM265 0v156h160v-156h-160zM485 0v156h160v-156h-160z" />
    <glyph glyph-name="perthousand" unicode="&#x2030;" horiz-adv-x="886" 
d="M196 700q38 0 54 -16t16 -54v-136q0 -38 -16 -54t-54 -16h-86q-37 0 -53.5 16.5t-16.5 53.5v136q0 38 16 54t54 16h86zM206 0h-116l324 700h116zM193 614q0 11 -3.5 14.5t-14.5 3.5h-44q-11 0 -14.5 -3.5t-3.5 -14.5v-104q0 -11 3.5 -14.5t14.5 -3.5h44q11 0 14.5 3.5
t3.5 14.5v104zM510 276q38 0 54 -16t16 -54v-136q0 -38 -16 -54t-54 -16h-86q-37 0 -53.5 16.5t-16.5 53.5v136q0 38 16 54t54 16h86zM776 276q38 0 54 -16t16 -54v-136q0 -38 -16 -54t-54 -16h-86q-37 0 -53.5 16.5t-16.5 53.5v136q0 38 16 54t54 16h86zM507 190
q0 11 -3.5 14.5t-14.5 3.5h-44q-11 0 -14.5 -3.5t-3.5 -14.5v-104q0 -11 3.5 -14.5t14.5 -3.5h44q11 0 14.5 3.5t3.5 14.5v104zM773 190q0 11 -3.5 14.5t-14.5 3.5h-44q-11 0 -14.5 -3.5t-3.5 -14.5v-104q0 -11 3.5 -14.5t14.5 -3.5h44q11 0 14.5 3.5t3.5 14.5v104z" />
    <glyph glyph-name="guilsinglleft" unicode="&#x2039;" horiz-adv-x="310" 
d="M140 351l147 -207h-144l-128 181v52l128 182h144z" />
    <glyph glyph-name="guilsinglright" unicode="&#x203a;" horiz-adv-x="310" 
d="M295 325l-128 -181h-144l147 207l-147 208h144l128 -182v-52z" />
    <glyph glyph-name="fraction" unicode="&#x2044;" horiz-adv-x="212" 
d="M-50 0h-100l412 720h100z" />
    <glyph glyph-name="uni2070" unicode="&#x2070;" horiz-adv-x="379" 
d="M125 414q-47 0 -68.5 21t-21.5 69v216q0 47 21.5 68.5t68.5 21.5h129q47 0 68.5 -21t21.5 -69v-216q0 -47 -21 -68.5t-69 -21.5h-129zM130 516q0 -8 2 -10t10 -2h95q8 0 10 2t2 10v192q0 8 -2 10t-10 2h-95q-8 0 -10 -2t-2 -10v-192z" />
    <glyph glyph-name="uni2074" unicode="&#x2074;" horiz-adv-x="408" 
d="M326 486v-72h-92v72h-194l-21 70l229 254h78v-241h60v-83h-60zM234 569v100l-99 -100h99z" />
    <glyph glyph-name="uni2075" unicode="&#x2075;" horiz-adv-x="370" 
d="M132 720v-89q19 22 43.5 32.5t74.5 10.5q48 0 69 -21t21 -69v-80q0 -47 -21 -68.5t-69 -21.5h-129q-47 0 -68.5 21t-21.5 69v33h95v-21q0 -8 2 -10t10 -2h96q8 0 10 2t2 10v63q0 8 -2 10t-10 2q-43 0 -64.5 -4t-37.5 -9l-95 27v205h290v-90h-195z" />
    <glyph glyph-name="uni2076" unicode="&#x2076;" horiz-adv-x="377" 
d="M245 708q0 8 -2 10t-10 2h-91q-8 0 -10 -2t-2 -10v-88q10 11 20 19t24 13.5t33.5 8.5t46.5 3q48 0 69 -21t21 -69v-70q0 -47 -21 -68.5t-69 -21.5h-129q-47 0 -68.5 21t-21.5 69v216q0 47 21.5 68.5t68.5 21.5h125q48 0 69 -21t21 -69v-27h-95v15zM130 516q0 -8 2 -10
t10 -2h96q8 0 10 2t2 10v56q0 8 -2 10t-10 2q-24 0 -40.5 -1t-29 -3t-21.5 -4t-17 -5v-55z" />
    <glyph glyph-name="uni2077" unicode="&#x2077;" horiz-adv-x="347" 
d="M125 414h-104l194 306h-200v90h313v-73z" />
    <glyph glyph-name="uni2078" unicode="&#x2078;" horiz-adv-x="372" 
d="M335 698q0 -36 -8 -53.5t-30 -28.5q24 -11 33.5 -29t9.5 -56q0 -67 -21 -92t-69 -25h-128q-24 0 -41 5.5t-28 19t-16 36t-5 56.5q0 38 9.5 56t32.5 29q-22 11 -29.5 28.5t-7.5 53.5q0 63 21.5 87.5t68.5 24.5h118q47 0 68.5 -24t21.5 -88zM143 723q-8 0 -10 -5t-2 -28
t2 -28t10 -5h85q8 0 10 5t2 28t-2 28t-10 5h-85zM139 574q-8 0 -10 -5t-2 -31t2 -31.5t10 -5.5h94q8 0 10 5.5t2 31.5t-2 31t-10 5h-94z" />
    <glyph glyph-name="uni2079" unicode="&#x2079;" horiz-adv-x="377" 
d="M133 516q0 -8 2 -10t10 -2h91q8 0 10 2t2 10v88q-10 -11 -20 -19t-24 -13.5t-33.5 -8.5t-46.5 -3q-48 0 -69 21t-21 69v70q0 47 21 68.5t69 21.5h129q47 0 68.5 -21t21.5 -69v-216q0 -47 -21.5 -68.5t-68.5 -21.5h-125q-48 0 -69 21t-21 69v27h95v-15zM248 708q0 8 -2 10
t-10 2h-96q-8 0 -10 -2t-2 -10v-56q0 -8 2 -10t10 -2q24 0 40.5 1t29 3t21.5 4t17 5v55z" />
    <glyph glyph-name="Euro" unicode="&#x20ac;" horiz-adv-x="664" 
d="M471 548q0 20 -20 20h-184q-20 0 -20 -20v-94h178v-71h-178v-66h178v-71h-178v-94q0 -20 20 -20h184q20 0 20 20v102h144v-114q0 -140 -140 -140h-232q-140 0 -140 140v106h-78v71h78v66h-78v71h78v106q0 140 140 140h232q140 0 140 -140v-114h-144v102z" />
    <glyph glyph-name="trademark" unicode="&#x2122;" horiz-adv-x="756" 
d="M217 630v-290h-75v290h-92v70h260v-70h-93zM706 340h-69v227l-77 -173h-49l-77 173v-227h-69v360h82l88 -204l90 204h81v-360z" />
    <glyph glyph-name="oneeighth" unicode="&#x215b;" horiz-adv-x="835" 
d="M201 0h-100l412 720h100zM106 604l-86 -24v77l106 45h74v-396h-94v298zM798 284q0 -36 -8 -53.5t-30 -28.5q24 -11 33.5 -29t9.5 -56q0 -67 -21 -92t-69 -25h-128q-24 0 -41 5.5t-28 19t-16 36t-5 56.5q0 38 9.5 56t32.5 29q-22 11 -29.5 28.5t-7.5 53.5q0 63 21.5 87.5
t68.5 24.5h118q47 0 68.5 -24t21.5 -88zM606 309q-8 0 -10 -5t-2 -28t2 -28t10 -5h85q8 0 10 5t2 28t-2 28t-10 5h-85zM602 160q-8 0 -10 -5t-2 -31t2 -31.5t10 -5.5h94q8 0 10 5.5t2 31.5t-2 31t-10 5h-94z" />
    <glyph glyph-name="threeeighths" unicode="&#x215c;" horiz-adv-x="945" 
d="M311 0h-100l412 720h100zM120 427q0 -26 2 -31t10 -5h91q8 0 10 5t2 31t-2 31.5t-10 5.5h-91v83h86q8 0 10 5t2 28t-2 28t-10 5h-82q-8 0 -10 -5t-2 -28v-5h-94v11q0 65 21.5 89.5t68.5 24.5h114q46 0 68 -24.5t22 -89.5q0 -19 -1.5 -31.5t-6 -21.5t-11.5 -15t-18 -12
q23 -11 32.5 -28t9.5 -58q0 -66 -21 -91t-69 -25h-124q-48 0 -69 24.5t-21 91.5v9h95v-2zM908 284q0 -36 -8 -53.5t-30 -28.5q24 -11 33.5 -29t9.5 -56q0 -67 -21 -92t-69 -25h-128q-24 0 -41 5.5t-28 19t-16 36t-5 56.5q0 38 9.5 56t32.5 29q-22 11 -29.5 28.5t-7.5 53.5
q0 63 21.5 87.5t68.5 24.5h118q47 0 68.5 -24t21.5 -88zM716 309q-8 0 -10 -5t-2 -28t2 -28t10 -5h85q8 0 10 5t2 28t-2 28t-10 5h-85zM712 160q-8 0 -10 -5t-2 -31t2 -31.5t10 -5.5h94q8 0 10 5.5t2 31.5t-2 31t-10 5h-94z" />
    <glyph glyph-name="fiveeighths" unicode="&#x215d;" horiz-adv-x="954" 
d="M320 0h-100l412 720h100zM132 610v-89q19 22 43.5 32.5t74.5 10.5q48 0 69 -21t21 -69v-80q0 -47 -21 -68.5t-69 -21.5h-129q-47 0 -68.5 21t-21.5 69v33h95v-21q0 -8 2 -10t10 -2h96q8 0 10 2t2 10v63q0 8 -2 10t-10 2q-43 0 -64.5 -4t-37.5 -9l-95 27v205h290v-90h-195
zM917 284q0 -36 -8 -53.5t-30 -28.5q24 -11 33.5 -29t9.5 -56q0 -67 -21 -92t-69 -25h-128q-24 0 -41 5.5t-28 19t-16 36t-5 56.5q0 38 9.5 56t32.5 29q-22 11 -29.5 28.5t-7.5 53.5q0 63 21.5 87.5t68.5 24.5h118q47 0 68.5 -24t21.5 -88zM725 309q-8 0 -10 -5t-2 -28
t2 -28t10 -5h85q8 0 10 5t2 28t-2 28t-10 5h-85zM721 160q-8 0 -10 -5t-2 -31t2 -31.5t10 -5.5h94q8 0 10 5.5t2 31.5t-2 31t-10 5h-94z" />
    <glyph glyph-name="seveneighths" unicode="&#x215e;" horiz-adv-x="851" 
d="M217 0h-100l412 720h100zM125 304h-104l194 306h-200v90h313v-73zM814 284q0 -36 -8 -53.5t-30 -28.5q24 -11 33.5 -29t9.5 -56q0 -67 -21 -92t-69 -25h-128q-24 0 -41 5.5t-28 19t-16 36t-5 56.5q0 38 9.5 56t32.5 29q-22 11 -29.5 28.5t-7.5 53.5q0 63 21.5 87.5
t68.5 24.5h118q47 0 68.5 -24t21.5 -88zM622 309q-8 0 -10 -5t-2 -28t2 -28t10 -5h85q8 0 10 5t2 28t-2 28t-10 5h-85zM618 160q-8 0 -10 -5t-2 -31t2 -31.5t10 -5.5h94q8 0 10 5.5t2 31.5t-2 31t-10 5h-94z" />
    <glyph glyph-name="minus" unicode="&#x2212;" horiz-adv-x="508" 
d="M452 427v-134h-396v134h396z" />
    <glyph glyph-name="infinity" unicode="&#x221e;" horiz-adv-x="830" 
d="M635 570q140 0 140 -140v-134q0 -140 -140 -140h-93q-35 0 -58 8t-37 20t-21 25t-11 24q-4 -11 -11 -24t-21 -25t-37 -20t-58 -8h-93q-140 0 -140 140v134q0 140 140 140h93q35 0 58 -8t37 -20t21 -25.5t11 -23.5q4 10 11 23.5t21 25.5t37 20t58 8h93zM305 286
q20 0 20 20v114q0 20 -20 20h-110q-20 0 -20 -20v-114q0 -20 20 -20h110zM655 420q0 20 -20 20h-110q-20 0 -20 -20v-114q0 -20 20 -20h110q20 0 20 20v114z" />
    <glyph glyph-name="notequal" unicode="&#x2260;" horiz-adv-x="508" 
d="M289 336h163v-130h-210l-42 -115h-94l42 115h-92v130h139l27 76h-166v130h213l39 108h94l-39 -108h89v-130h-136z" />
    <glyph glyph-name="uniFB01" unicode="&#xfb01;" horiz-adv-x="649" 
d="M263 626q-22 0 -22 -22v-64h120v-116h-120v-424h-138v424h-77v116h77v60q0 67 31 98.5t99 31.5h118v-104h-88zM442 600v130h146v-130h-146zM584 0h-138v540h138v-540z" />
    <glyph glyph-name="uniFB02" unicode="&#xfb02;" horiz-adv-x="645" 
d="M263 626q-22 0 -22 -22v-64h120v-116h-120v-424h-138v424h-77v116h77v60q0 67 31 98.5t99 31.5h118v-104h-88zM582 730v-730h-138v730h138z" />
    <glyph glyph-name="glyph113" horiz-adv-x="649" 
d="M445 700q140 0 140 -140v-94q0 -35 -14 -62t-49 -46q38 -17 54.5 -45t16.5 -63v-110q0 -140 -140 -140h-374v700h366zM421 420q20 0 20 20v110q0 20 -20 20h-198v-150h198zM429 130q20 0 20 20v126q0 20 -20 20h-206v-166h206z" />
    <glyph glyph-name="glyph114" horiz-adv-x="660" 
d="M223 0h-144v700h144v-278h54l196 278h164l-239 -342l249 -358h-169l-202 294h-53v-294z" />
    <glyph glyph-name="glyph115" horiz-adv-x="660" 
d="M223 0h-144v700h144v-278h54l196 278h164l-239 -342l249 -358h-169l-202 294h-53v-294zM417 -178q0 -22 -15 -46.5t-33 -47.5l-59 -78h-56l77 134h-54v146h140v-108z" />
    <glyph glyph-name="glyph228" horiz-adv-x="552" 
d="M201 0h-136v730h136v-394h45l139 204h148l-179 -262l189 -278h-153l-146 220h-43v-220z" />
    <glyph glyph-name="glyph229" horiz-adv-x="552" 
d="M201 0h-136v730h136v-394h45l139 204h148l-179 -262l189 -278h-153l-146 220h-43v-220zM355 -178q0 -22 -15 -46.5t-33 -47.5l-59 -78h-56l77 134h-54v146h140v-108z" />
    <glyph glyph-name="glyph244" horiz-adv-x="604" 
d="M194 150q0 -20 20 -20h176q20 0 20 20v124q0 20 -20 20h-167v128h159q20 0 20 20v108q0 20 -20 20h-160q-20 0 -20 -20v-66h-144v76q0 140 140 140h208q140 0 140 -140v-94q0 -37 -14 -63t-49 -45q38 -17 54.5 -44t16.5 -64v-110q0 -140 -140 -140h-224q-140 0 -140 140
v76h144v-66z" />
    <glyph glyph-name="glyph245" horiz-adv-x="620" 
d="M499 358q38 -17 54.5 -44t16.5 -64v-110q0 -140 -140 -140h-240q-140 0 -140 140v110q0 37 16.5 64t54.5 44q-35 19 -49 45t-14 63v94q0 140 140 140h224q140 0 140 -140v-94q0 -37 -14 -63t-49 -45zM202 442q0 -20 20 -20h176q20 0 20 20v108q0 20 -20 20h-176
q-20 0 -20 -20v-108zM426 274q0 20 -20 20h-192q-20 0 -20 -20v-124q0 -20 20 -20h192q20 0 20 20v124z" />
    <glyph glyph-name="glyph246" horiz-adv-x="379" 
d="M125 -126q-47 0 -68.5 21t-21.5 69v216q0 47 21.5 68.5t68.5 21.5h129q47 0 68.5 -21t21.5 -69v-216q0 -47 -21 -68.5t-69 -21.5h-129zM130 -24q0 -8 2 -10t10 -2h95q8 0 10 2t2 10v192q0 8 -2 10t-10 2h-95q-8 0 -10 -2t-2 -10v-192z" />
    <glyph glyph-name="glyph247" horiz-adv-x="251" 
d="M106 172l-86 -24v77l106 45h74v-396h-94v298z" />
    <glyph glyph-name="glyph248" horiz-adv-x="361" 
d="M130 146h-91v34q0 48 21.5 69t68.5 21h111q48 0 69 -21t21 -69v-61q0 -20 -8.5 -33.5t-21.5 -22.5t-28 -14t-28 -9l-95 -28q-9 -2 -14.5 -5.5t-5.5 -11.5v-31h202v-90h-297v146q0 19 7 32t19 22t27.5 14.5t32.5 10.5l95 28q12 4 16 6.5t4 10.5v24q0 8 -2 10t-10 2h-81
q-8 0 -10 -2t-2 -10v-22z" />
    <glyph glyph-name="glyph249" horiz-adv-x="361" 
d="M120 -3q0 -26 2 -31t10 -5h91q8 0 10 5t2 31t-2 31.5t-10 5.5h-91v83h86q8 0 10 5t2 28t-2 28t-10 5h-82q-8 0 -10 -5t-2 -28v-5h-94v11q0 65 21.5 89.5t68.5 24.5h114q46 0 68 -24.5t22 -89.5q0 -19 -1.5 -31.5t-6 -21.5t-11.5 -15t-18 -12q23 -11 32.5 -28t9.5 -58
q0 -66 -21 -91t-69 -25h-124q-48 0 -69 24.5t-21 91.5v9h95v-2z" />
    <glyph glyph-name="glyph250" horiz-adv-x="408" 
d="M326 -54v-72h-92v72h-194l-21 70l229 254h78v-241h60v-83h-60zM234 29v100l-99 -100h99z" />
    <glyph glyph-name="glyph251" horiz-adv-x="370" 
d="M132 180v-89q19 22 43.5 32.5t74.5 10.5q48 0 69 -21t21 -69v-80q0 -47 -21 -68.5t-69 -21.5h-129q-47 0 -68.5 21t-21.5 69v33h95v-21q0 -8 2 -10t10 -2h96q8 0 10 2t2 10v63q0 8 -2 10t-10 2q-43 0 -64.5 -4t-37.5 -9l-95 27v205h290v-90h-195z" />
    <glyph glyph-name="glyph252" horiz-adv-x="377" 
d="M245 168q0 8 -2 10t-10 2h-91q-8 0 -10 -2t-2 -10v-88q10 11 20 19t24 13.5t33.5 8.5t46.5 3q48 0 69 -21t21 -69v-70q0 -47 -21 -68.5t-69 -21.5h-129q-47 0 -68.5 21t-21.5 69v216q0 47 21.5 68.5t68.5 21.5h125q48 0 69 -21t21 -69v-27h-95v15zM130 -24q0 -8 2 -10
t10 -2h96q8 0 10 2t2 10v56q0 8 -2 10t-10 2q-24 0 -40.5 -1t-29 -3t-21.5 -4t-17 -5v-55z" />
    <glyph glyph-name="glyph253" horiz-adv-x="347" 
d="M125 -126h-104l194 306h-200v90h313v-73z" />
    <glyph glyph-name="glyph254" horiz-adv-x="372" 
d="M335 158q0 -36 -8 -53.5t-30 -28.5q24 -11 33.5 -29t9.5 -56q0 -67 -21 -92t-69 -25h-128q-24 0 -41 5.5t-28 19t-16 36t-5 56.5q0 38 9.5 56t32.5 29q-22 11 -29.5 28.5t-7.5 53.5q0 63 21.5 87.5t68.5 24.5h118q47 0 68.5 -24t21.5 -88zM143 183q-8 0 -10 -5t-2 -28
t2 -28t10 -5h85q8 0 10 5t2 28t-2 28t-10 5h-85zM139 34q-8 0 -10 -5t-2 -31t2 -31.5t10 -5.5h94q8 0 10 5.5t2 31.5t-2 31t-10 5h-94z" />
    <glyph glyph-name="glyph255" horiz-adv-x="377" 
d="M133 -24q0 -8 2 -10t10 -2h91q8 0 10 2t2 10v88q-10 -11 -20 -19t-24 -13.5t-33.5 -8.5t-46.5 -3q-48 0 -69 21t-21 69v70q0 47 21 68.5t69 21.5h129q47 0 68.5 -21t21.5 -69v-216q0 -47 -21.5 -68.5t-68.5 -21.5h-125q-48 0 -69 21t-21 69v27h95v-15zM248 168q0 8 -2 10
t-10 2h-96q-8 0 -10 -2t-2 -10v-56q0 -8 2 -10t10 -2q24 0 40.5 1t29 3t21.5 4t17 5v55z" />
    <glyph glyph-name="glyph256" horiz-adv-x="639" 
d="M200 0q-140 0 -140 140v420q0 140 140 140h239q140 0 140 -140v-420q0 -140 -140 -140h-239zM204 152q0 -20 20 -20h191q20 0 20 20v396q0 20 -20 20h-191q-20 0 -20 -20v-396z" />
    <glyph glyph-name="glyph257" horiz-adv-x="639" 
d="M100 0v132h159v428l-159 -50v140l158 50h145v-568h147v-132h-450z" />
    <glyph glyph-name="glyph258" horiz-adv-x="639" 
d="M226 482h-140v78q0 140 140 140h202q140 0 140 -140v-112q0 -30 -10.5 -52t-29.5 -38.5t-45.5 -29t-58.5 -24.5l-162 -60q-20 -8 -30 -14t-10 -26v-72h348v-132h-492v236q0 30 10.5 52t29.5 38.5t45.5 29t58.5 24.5l162 60q20 8 30 14t10 26v68q0 20 -20 20h-158
q-20 0 -20 -20v-66z" />
    <glyph glyph-name="glyph259" horiz-adv-x="639" 
d="M209 212q0 -29 1 -45.5t3.5 -24.5t6 -10t9.5 -2h176q6 0 9.5 2t6 10t3.5 24.5t1 45.5t-1 45.5t-3.5 24.5t-6 10t-9.5 2h-167v128h159q6 0 9.5 2t6 9.5t3.5 22t1 40.5t-1 40.5t-3.5 22t-6 9.5t-9.5 2h-160q-6 0 -9.5 -2t-6 -9.5t-3.5 -22t-1 -40.5v-12h-144v23
q0 55 8.5 92.5t26 59.5t43.5 31.5t62 9.5h208q36 0 62 -9.5t43.5 -31t26 -57.5t8.5 -89q0 -36 -3.5 -61t-11 -43t-19.5 -30t-29 -21q19 -8 32.5 -20t22 -31t12.5 -46t4 -66q0 -56 -8.5 -93.5t-26 -60t-43.5 -32t-62 -9.5h-224q-36 0 -62 9.5t-43.5 32t-26 60t-8.5 93.5v21
h144v-4z" />
    <glyph glyph-name="glyph260" horiz-adv-x="639" 
d="M516 144v-144h-140v144h-320l-30 108l348 448h142v-428h97v-128h-97zM376 272v229l-174 -229h174z" />
    <glyph glyph-name="glyph261" horiz-adv-x="639" 
d="M229 377q13 19 27.5 34.5t34 26.5t46.5 17t66 6q87 0 124 -34.5t37 -105.5v-177q0 -144 -144 -144h-205q-140 0 -140 140v77h144v-65q0 -20 20 -20h161q20 0 20 20v161q0 11 -7 15.5t-34 4.5q-28 0 -49 -2t-38 -6t-32 -10.5t-31 -14.5l-144 36v364h459v-132h-315v-191z
" />
    <glyph glyph-name="glyph262" horiz-adv-x="639" 
d="M417 548q0 20 -20 20h-161q-20 0 -20 -20v-190q13 19 28.5 34.5t37 26.5t51 17t70.5 6q91 0 128.5 -34t37.5 -106v-162q0 -140 -140 -140h-217q-140 0 -140 140v420q0 140 140 140h209q140 0 140 -140v-66h-144v54zM216 152q0 -20 20 -20h169q20 0 20 20v142
q0 11 -7.5 15.5t-39.5 4.5q-30 0 -53 -2t-42 -6t-35 -10.5t-32 -14.5v-129z" />
    <glyph glyph-name="glyph263" horiz-adv-x="639" 
d="M253 0h-158l329 564h-372v136h544v-110z" />
    <glyph glyph-name="glyph264" horiz-adv-x="639" 
d="M508 358q19 -8 32.5 -20t22 -31t12.5 -46t4 -66q0 -56 -8.5 -93.5t-26 -60t-43.5 -32t-62 -9.5h-240q-36 0 -62 9.5t-43.5 32t-26 60t-8.5 93.5q0 39 4 66t12.5 46t22 31t32.5 20q-17 9 -29 21t-19.5 30t-11 43t-3.5 61q0 53 8.5 89t26 57.5t43.5 31t62 9.5h224
q36 0 62 -9.5t43.5 -31t26 -57.5t8.5 -89q0 -36 -3.5 -61t-11 -43t-19.5 -30t-29 -21zM231 570q-6 0 -9.5 -2t-6 -9.5t-3.5 -22t-1 -40.5t1 -40.5t3.5 -22t6 -9.5t9.5 -2h176q6 0 9.5 2t6 9.5t3.5 22t1 40.5t-1 40.5t-3.5 22t-6 9.5t-9.5 2h-176zM415 130q6 0 9.5 2t6 10
t3.5 24.5t1 45.5t-1 45.5t-3.5 24.5t-6 10t-9.5 2h-192q-6 0 -9.5 -2t-6 -10t-3.5 -24.5t-1 -45.5t1 -45.5t3.5 -24.5t6 -10t9.5 -2h192z" />
    <glyph glyph-name="glyph265" horiz-adv-x="639" 
d="M222 152q0 -20 20 -20h161q20 0 20 20v193q-14 -19 -29 -34.5t-36.5 -26.5t-50.5 -17t-70 -6q-92 0 -129.5 34t-37.5 106v159q0 140 140 140h217q140 0 140 -140v-420q0 -140 -140 -140h-209q-140 0 -140 140v66h144v-54zM423 548q0 20 -20 20h-169q-20 0 -20 -20v-139
q0 -11 7.5 -15.5t39.5 -4.5q30 0 53 2t42 6t35 10.5t32 14.5v126z" />
    <glyph glyph-name="glyph274" horiz-adv-x="379" 
d="M125 0q-47 0 -68.5 21t-21.5 69v216q0 47 21.5 68.5t68.5 21.5h129q47 0 68.5 -21t21.5 -69v-216q0 -47 -21 -68.5t-69 -21.5h-129zM130 102q0 -8 2 -10t10 -2h95q8 0 10 2t2 10v192q0 8 -2 10t-10 2h-95q-8 0 -10 -2t-2 -10v-192z" />
    <glyph glyph-name="glyph275" horiz-adv-x="251" 
d="M106 298l-86 -24v77l106 45h74v-396h-94v298z" />
    <glyph glyph-name="glyph276" horiz-adv-x="361" 
d="M130 272h-91v34q0 48 21.5 69t68.5 21h111q48 0 69 -21t21 -69v-61q0 -20 -8.5 -33.5t-21.5 -22.5t-28 -14t-28 -9l-95 -28q-9 -2 -14.5 -5.5t-5.5 -11.5v-31h202v-90h-297v146q0 19 7 32t19 22t27.5 14.5t32.5 10.5l95 28q12 4 16 6.5t4 10.5v24q0 8 -2 10t-10 2h-81
q-8 0 -10 -2t-2 -10v-22z" />
    <glyph glyph-name="glyph277" horiz-adv-x="361" 
d="M120 123q0 -26 2 -31t10 -5h91q8 0 10 5t2 31t-2 31.5t-10 5.5h-91v83h86q8 0 10 5t2 28t-2 28t-10 5h-82q-8 0 -10 -5t-2 -28v-5h-94v11q0 65 21.5 89.5t68.5 24.5h114q46 0 68 -24.5t22 -89.5q0 -19 -1.5 -31.5t-6 -21.5t-11.5 -15t-18 -12q23 -11 32.5 -28t9.5 -58
q0 -66 -21 -91t-69 -25h-124q-48 0 -69 24.5t-21 91.5v9h95v-2z" />
    <glyph glyph-name="glyph278" horiz-adv-x="408" 
d="M326 72v-72h-92v72h-194l-21 70l229 254h78v-241h60v-83h-60zM234 155v100l-99 -100h99z" />
    <glyph glyph-name="glyph279" horiz-adv-x="370" 
d="M132 306v-89q19 22 43.5 32.5t74.5 10.5q48 0 69 -21t21 -69v-80q0 -47 -21 -68.5t-69 -21.5h-129q-47 0 -68.5 21t-21.5 69v33h95v-21q0 -8 2 -10t10 -2h96q8 0 10 2t2 10v63q0 8 -2 10t-10 2q-43 0 -64.5 -4t-37.5 -9l-95 27v205h290v-90h-195z" />
    <glyph glyph-name="glyph280" horiz-adv-x="377" 
d="M245 294q0 8 -2 10t-10 2h-91q-8 0 -10 -2t-2 -10v-88q10 11 20 19t24 13.5t33.5 8.5t46.5 3q48 0 69 -21t21 -69v-70q0 -47 -21 -68.5t-69 -21.5h-129q-47 0 -68.5 21t-21.5 69v216q0 47 21.5 68.5t68.5 21.5h125q48 0 69 -21t21 -69v-27h-95v15zM130 102q0 -8 2 -10
t10 -2h96q8 0 10 2t2 10v56q0 8 -2 10t-10 2q-24 0 -40.5 -1t-29 -3t-21.5 -4t-17 -5v-55z" />
    <glyph glyph-name="glyph281" horiz-adv-x="347" 
d="M125 0h-104l194 306h-200v90h313v-73z" />
    <glyph glyph-name="glyph282" horiz-adv-x="372" 
d="M335 284q0 -36 -8 -53.5t-30 -28.5q24 -11 33.5 -29t9.5 -56q0 -67 -21 -92t-69 -25h-128q-24 0 -41 5.5t-28 19t-16 36t-5 56.5q0 38 9.5 56t32.5 29q-22 11 -29.5 28.5t-7.5 53.5q0 63 21.5 87.5t68.5 24.5h118q47 0 68.5 -24t21.5 -88zM143 309q-8 0 -10 -5t-2 -28
t2 -28t10 -5h85q8 0 10 5t2 28t-2 28t-10 5h-85zM139 160q-8 0 -10 -5t-2 -31t2 -31.5t10 -5.5h94q8 0 10 5.5t2 31.5t-2 31t-10 5h-94z" />
    <glyph glyph-name="glyph283" horiz-adv-x="377" 
d="M133 102q0 -8 2 -10t10 -2h91q8 0 10 2t2 10v88q-10 -11 -20 -19t-24 -13.5t-33.5 -8.5t-46.5 -3q-48 0 -69 21t-21 69v70q0 47 21 68.5t69 21.5h129q47 0 68.5 -21t21.5 -69v-216q0 -47 -21.5 -68.5t-68.5 -21.5h-125q-48 0 -69 21t-21 69v27h95v-15zM248 294q0 8 -2 10
t-10 2h-96q-8 0 -10 -2t-2 -10v-56q0 -8 2 -10t10 -2q24 0 40.5 1t29 3t21.5 4t17 5v55z" />
    <glyph glyph-name="glyph284" horiz-adv-x="379" 
d="M125 304q-47 0 -68.5 21t-21.5 69v216q0 47 21.5 68.5t68.5 21.5h129q47 0 68.5 -21t21.5 -69v-216q0 -47 -21 -68.5t-69 -21.5h-129zM130 406q0 -8 2 -10t10 -2h95q8 0 10 2t2 10v192q0 8 -2 10t-10 2h-95q-8 0 -10 -2t-2 -10v-192z" />
    <glyph glyph-name="glyph285" horiz-adv-x="251" 
d="M106 604l-86 -24v77l106 45h74v-396h-94v298z" />
    <glyph glyph-name="glyph286" horiz-adv-x="361" 
d="M130 576h-91v34q0 48 21.5 69t68.5 21h111q48 0 69 -21t21 -69v-61q0 -20 -8.5 -33.5t-21.5 -22.5t-28 -14t-28 -9l-95 -28q-9 -2 -14.5 -5.5t-5.5 -11.5v-31h202v-90h-297v146q0 19 7 32t19 22t27.5 14.5t32.5 10.5l95 28q12 4 16 6.5t4 10.5v24q0 8 -2 10t-10 2h-81
q-8 0 -10 -2t-2 -10v-22z" />
    <glyph glyph-name="glyph287" horiz-adv-x="361" 
d="M120 427q0 -26 2 -31t10 -5h91q8 0 10 5t2 31t-2 31.5t-10 5.5h-91v83h86q8 0 10 5t2 28t-2 28t-10 5h-82q-8 0 -10 -5t-2 -28v-5h-94v11q0 65 21.5 89.5t68.5 24.5h114q46 0 68 -24.5t22 -89.5q0 -19 -1.5 -31.5t-6 -21.5t-11.5 -15t-18 -12q23 -11 32.5 -28t9.5 -58
q0 -66 -21 -91t-69 -25h-124q-48 0 -69 24.5t-21 91.5v9h95v-2z" />
    <glyph glyph-name="glyph288" horiz-adv-x="408" 
d="M326 376v-72h-92v72h-194l-21 70l229 254h78v-241h60v-83h-60zM234 459v100l-99 -100h99z" />
    <glyph glyph-name="glyph289" horiz-adv-x="370" 
d="M132 610v-89q19 22 43.5 32.5t74.5 10.5q48 0 69 -21t21 -69v-80q0 -47 -21 -68.5t-69 -21.5h-129q-47 0 -68.5 21t-21.5 69v33h95v-21q0 -8 2 -10t10 -2h96q8 0 10 2t2 10v63q0 8 -2 10t-10 2q-43 0 -64.5 -4t-37.5 -9l-95 27v205h290v-90h-195z" />
    <glyph glyph-name="glyph290" horiz-adv-x="377" 
d="M245 598q0 8 -2 10t-10 2h-91q-8 0 -10 -2t-2 -10v-88q10 11 20 19t24 13.5t33.5 8.5t46.5 3q48 0 69 -21t21 -69v-70q0 -47 -21 -68.5t-69 -21.5h-129q-47 0 -68.5 21t-21.5 69v216q0 47 21.5 68.5t68.5 21.5h125q48 0 69 -21t21 -69v-27h-95v15zM130 406q0 -8 2 -10
t10 -2h96q8 0 10 2t2 10v56q0 8 -2 10t-10 2q-24 0 -40.5 -1t-29 -3t-21.5 -4t-17 -5v-55z" />
    <glyph glyph-name="glyph291" horiz-adv-x="347" 
d="M125 304h-104l194 306h-200v90h313v-73z" />
    <glyph glyph-name="glyph292" horiz-adv-x="372" 
d="M335 588q0 -36 -8 -53.5t-30 -28.5q24 -11 33.5 -29t9.5 -56q0 -67 -21 -92t-69 -25h-128q-24 0 -41 5.5t-28 19t-16 36t-5 56.5q0 38 9.5 56t32.5 29q-22 11 -29.5 28.5t-7.5 53.5q0 63 21.5 87.5t68.5 24.5h118q47 0 68.5 -24t21.5 -88zM143 613q-8 0 -10 -5t-2 -28
t2 -28t10 -5h85q8 0 10 5t2 28t-2 28t-10 5h-85zM139 464q-8 0 -10 -5t-2 -31t2 -31.5t10 -5.5h94q8 0 10 5.5t2 31.5t-2 31t-10 5h-94z" />
    <glyph glyph-name="glyph293" horiz-adv-x="377" 
d="M133 406q0 -8 2 -10t10 -2h91q8 0 10 2t2 10v88q-10 -11 -20 -19t-24 -13.5t-33.5 -8.5t-46.5 -3q-48 0 -69 21t-21 69v70q0 47 21 68.5t69 21.5h129q47 0 68.5 -21t21.5 -69v-216q0 -47 -21.5 -68.5t-68.5 -21.5h-125q-48 0 -69 21t-21 69v27h95v-15zM248 598q0 8 -2 10
t-10 2h-96q-8 0 -10 -2t-2 -10v-56q0 -8 2 -10t10 -2q24 0 40.5 1t29 3t21.5 4t17 5v55z" />
    <glyph glyph-name="glyph322" horiz-adv-x="639" 
d="M483 295h80v-126h-123l-56 -169h-135l56 169h-96l-56 -169h-135l56 169h-66v126h109l40 122h-80v126h123l52 157h135l-52 -157h96l52 157h135l-52 -157h66v-126h-109zM293 417l-41 -122h96l41 122h-96z" />
    <glyph glyph-name="glyph344" horiz-adv-x="639" 
d="M396 568q-20 0 -20 -20v-100h131v-126h-131v-182q0 -140 -140 -140h-115v132h91q20 0 20 20v170h-104v126h104v112q0 140 140 140h145v-132h-121z" />
    <glyph glyph-name="glyph351" horiz-adv-x="639" 
d="M429 468q0 20 -20 20h-34v-270h34q20 0 20 20v54h130v-56q0 -140 -140 -140h-36v-96h-114v96h-42q-140 0 -140 140v234q0 140 140 140h42v90h114v-90h36q140 0 140 -140v-56h-130v54zM237 488q-20 0 -20 -20v-230q0 -20 20 -20h40v270h-40z" />
    <glyph glyph-name="glyph352" horiz-adv-x="639" 
d="M526 278q0 -26 -5 -51l82 -82l-85 -86l-84 84q-23 -5 -48 -5h-133q-25 0 -48 5l-84 -84l-85 86l82 82q-5 25 -5 51v160q0 25 5 48l-82 82l85 86l81 -81q25 5 51 5h133q26 0 51 -5l81 81l85 -86l-82 -82q5 -23 5 -48v-160zM404 444q0 20 -20 20h-129q-20 0 -20 -20v-172
q0 -20 20 -20h129q20 0 20 20v172z" />
    <glyph glyph-name="glyph353" horiz-adv-x="639" 
d="M430 400q33 -7 59.5 -18.5t45.5 -34t29 -58.5t10 -91q0 -57 -8.5 -95.5t-26 -61t-43.5 -32t-62 -9.5h-60v-102h-115v102h-55q-36 0 -62 9.5t-43.5 32t-26 61t-8.5 95.5v30h140v-36q0 -21 1 -33.5t3.5 -19t6 -8t9.5 -1.5h49v164l-63 14q-33 7 -59.5 18.5t-45.5 33.5
t-29 57t-10 89q0 56 8.5 93t26 59.5t43.5 32t62 9.5h53v102h115v-102h46q36 0 62 -9.5t43.5 -32t26 -59.5t8.5 -93v-24h-140v30q0 20 -1 31.5t-3.5 17.5t-6 7.5t-9.5 1.5h-40v-155zM273 570h-43q-6 0 -9.5 -1.5t-6 -7.5t-3.5 -17.5t-1 -31.5q0 -23 1.5 -36t5.5 -20.5
t10.5 -10.5t16.5 -5l29 -6v136zM410 130q6 0 9.5 1.5t6 8t3.5 19t1 33.5q0 24 -1.5 38t-5.5 21.5t-10.5 11t-16.5 5.5l-36 8v-146h50z" />
    <glyph glyph-name="glyph354" horiz-adv-x="639" 
d="M461 548q0 20 -20 20h-184q-20 0 -20 -20v-94h178v-71h-178v-66h178v-71h-178v-94q0 -20 20 -20h184q20 0 20 20v102h144v-114q0 -140 -140 -140h-232q-140 0 -140 140v106h-78v71h78v66h-78v71h78v106q0 140 140 140h232q140 0 140 -140v-114h-144v102z" />
    <glyph glyph-name="glyph355" horiz-adv-x="639" 
d="M581 0h-551v132h62q20 0 20 20v131h-82v130h82v147q0 140 140 140h185q140 0 140 -140v-92h-144v80q0 20 -20 20h-137q-20 0 -20 -20v-135h144v-130h-144v-151h325v-132z" />
    <glyph glyph-name="glyph356" horiz-adv-x="639" 
d="M545 338v-74h-141l-12 -25v-25h153v-74h-153v-140h-144v140h-153v74h153v25l-12 25h-141v74h104l-179 362h156l145 -312l145 312h154l-179 -362h104z" />
    <glyph glyph-name="glyph383" horiz-adv-x="658" 
d="M566 294v-154q0 -140 -140 -140h-226q-140 0 -140 140v110q0 35 16.5 63t54.5 45q-35 19 -49 46t-14 62v94q0 140 140 140h184q140 0 140 -140v-68h-144v58q0 20 -20 20h-136q-20 0 -20 -20v-108q0 -20 20 -20h406v-128h-72zM224 294q-20 0 -20 -20v-124q0 -20 20 -20
h178q20 0 20 20v144h-198z" />
    </font>
</defs>
</svg>
